<svg id="Ebene_1" data-name="Ebene 1" xmlns="http://www.w3.org/2000/svg" viewBox="0 0 2989.66 1932.39"><defs><style>.cls-1,.cls-15,.cls-16,.cls-2,.cls-25,.cls-26,.cls-3,.cls-6,.cls-7{isolation:isolate;}.cls-2{font-size:120.54px;}.cls-15,.cls-19,.cls-2,.cls-21,.cls-25,.cls-27,.cls-6,.cls-9{fill:#b8b7b7;}.cls-10,.cls-14,.cls-15,.cls-16,.cls-19,.cls-2,.cls-21,.cls-25,.cls-26,.cls-27,.cls-3,.cls-33,.cls-6,.cls-7,.cls-8{font-family:Arial-BoldMT, Arial;font-weight:700;}.cls-3{font-size:67.08px;}.cls-16,.cls-26,.cls-3,.cls-4,.cls-7{fill:#09648f;}.cls-17,.cls-20,.cls-22,.cls-23,.cls-28,.cls-29,.cls-30,.cls-31,.cls-32,.cls-5{fill:none;}.cls-5,.cls-9{stroke:#09648f;}.cls-17,.cls-20,.cls-22,.cls-23,.cls-28,.cls-29,.cls-30,.cls-31,.cls-32,.cls-5,.cls-9{stroke-miterlimit:10;}.cls-17,.cls-20,.cls-22,.cls-23,.cls-28,.cls-5{stroke-width:8px;}.cls-6{font-size:72.72px;}.cls-7{font-size:40.47px;}.cls-8{font-size:30px;}.cls-10,.cls-14,.cls-33,.cls-8{fill:#1d1d1b;}.cls-29,.cls-30,.cls-31,.cls-32,.cls-9{stroke-width:4px;}.cls-10{font-size:48px;}.cls-11{letter-spacing:-0.02em;}.cls-12{letter-spacing:-0.07em;}.cls-13{letter-spacing:0em;}.cls-14{font-size:40px;}.cls-15,.cls-19{font-size:53.74px;}.cls-16{font-size:29.91px;}.cls-17,.cls-29{stroke:#008d36;}.cls-18{letter-spacing:-0.06em;}.cls-20,.cls-30{stroke:#f39200;}.cls-21{font-size:36px;}.cls-22,.cls-31{stroke:#ffed00;}.cls-23,.cls-32{stroke:#e30613;}.cls-24{letter-spacing:-0.04em;}.cls-25,.cls-27{font-size:44.3px;}.cls-26{font-size:24.65px;}.cls-28{stroke:#e6332a;}.cls-33{font-size:43px;}</style></defs><title>mlr3verse</title><g id="Artboard-Copy"><g id="Group"><g id="m" class="cls-1"><text class="cls-2" transform="translate(1032.01 173.05)">m</text></g><g id="l" class="cls-1"><text class="cls-2" transform="translate(1140.58 173.05)">l</text></g><g id="r"><text class="cls-2" transform="translate(1173.9 173.05)">r</text></g><g id="r-2" data-name="r"><text class="cls-3" transform="translate(1224.05 100.32)">3</text></g></g><g id="Group-2"><rect id="Rectangle" class="cls-4" x="1020.99" y="86.95" width="13.78" height="13.78"/><rect id="Rectangle-2" data-name="Rectangle" class="cls-4" x="1003.77" y="86.95" width="13.78" height="13.78"/><rect id="Rectangle-3" data-name="Rectangle" class="cls-4" x="986.55" y="86.95" width="13.78" height="13.78"/><rect id="Rectangle-4" data-name="Rectangle" class="cls-4" x="1020.99" y="69.73" width="13.78" height="13.78"/><rect id="Rectangle-5" data-name="Rectangle" class="cls-4" x="1003.77" y="69.73" width="13.78" height="13.78"/><rect id="Rectangle-6" data-name="Rectangle" class="cls-4" x="986.55" y="69.73" width="13.78" height="13.78"/><rect id="Rectangle-7" data-name="Rectangle" class="cls-4" x="-579.02" y="-297.11" width="13.78" height="13.78" transform="translate(1596.33 -146.83) rotate(-45)"/><rect id="Rectangle-8" data-name="Rectangle" class="cls-4" x="1020.99" y="52.51" width="13.78" height="13.78"/><rect id="Rectangle-9" data-name="Rectangle" class="cls-4" x="1003.77" y="52.51" width="13.78" height="13.78"/></g></g><g id="r-3" data-name="r"><text class="cls-2" transform="translate(1264.3 173.05)">verse</text></g><rect class="cls-5" x="927.91" y="4" width="689.91" height="232.39" rx="35.44"/><g id="Artboard-Copy-2" data-name="Artboard-Copy"><g id="Group-2-2" data-name="Group"><g id="m-2" data-name="m" class="cls-1"><text class="cls-6" transform="translate(1390.53 837.08)">m</text></g><g id="l-2" data-name="l" class="cls-1"><text class="cls-6" transform="translate(1456.04 837.08)">l</text></g><g id="r-4" data-name="r"><text class="cls-6" transform="translate(1476.14 837.08)">r</text></g><g id="r-5" data-name="r"><text class="cls-7" transform="translate(1506.39 793.2)">3</text></g></g><g id="Group-2-3" data-name="Group-2"><rect id="Rectangle-10" data-name="Rectangle" class="cls-4" x="1383.88" y="785.13" width="8.31" height="8.31"/><rect id="Rectangle-11" data-name="Rectangle" class="cls-4" x="1373.49" y="785.13" width="8.31" height="8.31"/><rect id="Rectangle-12" data-name="Rectangle" class="cls-4" x="1363.11" y="785.13" width="8.31" height="8.31"/><rect id="Rectangle-13" data-name="Rectangle" class="cls-4" x="1383.88" y="774.74" width="8.31" height="8.31"/><rect id="Rectangle-14" data-name="Rectangle" class="cls-4" x="1373.49" y="774.74" width="8.31" height="8.31"/><rect id="Rectangle-15" data-name="Rectangle" class="cls-4" x="1363.11" y="774.74" width="8.31" height="8.31"/><rect id="Rectangle-16" data-name="Rectangle" class="cls-4" x="-199.73" y="417.47" width="8.31" height="8.31" transform="translate(1203.27 327.93) rotate(-45)"/><rect id="Rectangle-17" data-name="Rectangle" class="cls-4" x="1383.88" y="764.36" width="8.31" height="8.31"/><rect id="Rectangle-18" data-name="Rectangle" class="cls-4" x="1373.49" y="764.36" width="8.31" height="8.31"/></g></g><rect class="cls-5" x="1225.33" y="734.75" width="457.85" height="244.9" rx="35.44"/><text class="cls-8" transform="translate(1240.1 895.42)">tasks, learners, train-test-eval,<tspan x="57.53" y="36" xml:space="preserve"> resample, benchmark</tspan></text><rect class="cls-9" x="1272.87" y="426.89" width="366.34" height="128.69" rx="40.16"/><text class="cls-10" transform="translate(1318.96 503.87)"><tspan class="cls-11">V</tspan><tspan x="31.15" y="0">isualization</tspan></text><rect class="cls-9" x="726.92" y="426.89" width="366.34" height="128.69" rx="40.16"/><text x="1558.68" y="342.73"/><text class="cls-10" transform="translate(756.71 507.32)">Data Formats</text><rect class="cls-9" x="607.24" y="792.86" width="366.34" height="128.69" rx="40.16"/><text x="1558.68" y="342.73"/><text class="cls-10" transform="translate(703.73 873.29)">Utilities</text><rect class="cls-9" x="726.92" y="1158.83" width="366.34" height="128.69" rx="40.16"/><text x="1558.68" y="342.73"/><text class="cls-10" transform="translate(802.93 1239.26)">M<tspan class="cls-11" x="39.98" y="0">L</tspan><tspan x="68.44" y="0"> </tspan><tspan class="cls-12" x="81.77" y="0">T</tspan><tspan class="cls-13" x="107.53" y="0">asks</tspan></text><rect class="cls-9" x="1818.81" y="426.89" width="366.34" height="128.69" rx="40.16"/><text x="1558.68" y="342.73"/><text class="cls-10" transform="translate(1855.72 507.32)">M<tspan class="cls-11" x="39.98" y="0">L</tspan><tspan x="68.44" y="0" xml:space="preserve"> Pipelines</tspan></text><rect class="cls-9" x="1967.23" y="792.86" width="366.34" height="128.69" rx="40.16"/><text x="1558.68" y="342.73"/><text class="cls-10" transform="translate(2049 873.29)">Learners</text><rect class="cls-9" x="1818.81" y="1158.83" width="366.34" height="128.69" rx="40.16"/><text x="1558.68" y="342.73"/><text class="cls-14" transform="translate(1835.27 1239.26)">Feature Selection</text><rect class="cls-9" x="1272.87" y="1158.83" width="366.34" height="128.69" rx="40.16"/><text x="1558.68" y="342.73"/><text class="cls-10" transform="translate(1377.85 1239.26)"><tspan class="cls-12">T</tspan><tspan x="25.76" y="0">uning</tspan></text><g id="Artboard-Copy-3" data-name="Artboard-Copy"><g id="Group-3" data-name="Group"><g id="m-3" data-name="m" class="cls-1"><text class="cls-15" transform="translate(2584.58 633.15)">m</text></g><g id="l-3" data-name="l" class="cls-1"><text class="cls-15" transform="translate(2632.99 633.15)">l</text></g><g id="r-6" data-name="r"><text class="cls-15" transform="translate(2647.84 633.15)">r</text></g><g id="r-7" data-name="r"><text class="cls-16" transform="translate(2670.2 600.72)">3</text></g></g><g id="Group-2-4" data-name="Group-2"><rect id="Rectangle-19" data-name="Rectangle" class="cls-4" x="2579.66" y="594.76" width="6.14" height="6.14"/><rect id="Rectangle-20" data-name="Rectangle" class="cls-4" x="2571.99" y="594.76" width="6.14" height="6.14"/><rect id="Rectangle-21" data-name="Rectangle" class="cls-4" x="2564.31" y="594.76" width="6.14" height="6.14"/><rect id="Rectangle-22" data-name="Rectangle" class="cls-4" x="2579.66" y="587.08" width="6.14" height="6.14"/><rect id="Rectangle-23" data-name="Rectangle" class="cls-4" x="2571.99" y="587.08" width="6.14" height="6.14"/><rect id="Rectangle-24" data-name="Rectangle" class="cls-4" x="2564.31" y="587.08" width="6.14" height="6.14"/><rect id="Rectangle-25" data-name="Rectangle" class="cls-4" x="1002.56" y="233.6" width="6.14" height="6.14" transform="translate(1685.87 1123.14) rotate(-45)"/><rect id="Rectangle-26" data-name="Rectangle" class="cls-4" x="2579.66" y="579.4" width="6.14" height="6.14"/><rect id="Rectangle-27" data-name="Rectangle" class="cls-4" x="2571.99" y="579.4" width="6.14" height="6.14"/></g></g><rect class="cls-17" x="2508.49" y="559.27" width="457.85" height="174.46" rx="35.44"/><text class="cls-8" transform="translate(2562.45 672.4)">Popular learners, range<tspan class="cls-18" x="335.13" y="0">r</tspan><tspan x="345.15" y="0">,</tspan><tspan x="1.71" y="36">xgboost, glmnet, svm, ...</tspan></text><text class="cls-19" transform="translate(2690.91 633.15)">learners</text><rect class="cls-20" x="2512.01" y="767.01" width="457.85" height="174.46" rx="35.44"/><text class="cls-8" transform="translate(2521.81 880.14)">Many more learners, organized<tspan x="5" y="36">as Github extension packages</tspan></text><text class="cls-21" transform="translate(2529.86 825.32)">github.com/mlr3learners</text><g id="Artboard-Copy-4" data-name="Artboard-Copy"><g id="Group-4" data-name="Group"><g id="m-4" data-name="m" class="cls-1"><text class="cls-15" transform="translate(2631.08 1045.43)">m</text></g><g id="l-4" data-name="l" class="cls-1"><text class="cls-15" transform="translate(2679.49 1045.43)">l</text></g><g id="r-8" data-name="r"><text class="cls-15" transform="translate(2694.35 1045.43)">r</text></g><g id="r-9" data-name="r"><text class="cls-16" transform="translate(2716.71 1013.01)">3</text></g></g><g id="Group-2-5" data-name="Group-2"><rect id="Rectangle-28" data-name="Rectangle" class="cls-4" x="2626.17" y="1007.04" width="6.14" height="6.14"/><rect id="Rectangle-29" data-name="Rectangle" class="cls-4" x="2618.49" y="1007.04" width="6.14" height="6.14"/><rect id="Rectangle-30" data-name="Rectangle" class="cls-4" x="2610.81" y="1007.04" width="6.14" height="6.14"/><rect id="Rectangle-31" data-name="Rectangle" class="cls-4" x="2626.17" y="999.37" width="6.14" height="6.14"/><rect id="Rectangle-32" data-name="Rectangle" class="cls-4" x="2618.49" y="999.37" width="6.14" height="6.14"/><rect id="Rectangle-33" data-name="Rectangle" class="cls-4" x="2610.81" y="999.37" width="6.14" height="6.14"/><rect id="Rectangle-34" data-name="Rectangle" class="cls-4" x="1049.06" y="645.89" width="6.14" height="6.14" transform="translate(1407.96 1276.78) rotate(-45)"/><rect id="Rectangle-35" data-name="Rectangle" class="cls-4" x="2626.17" y="991.69" width="6.14" height="6.14"/><rect id="Rectangle-36" data-name="Rectangle" class="cls-4" x="2618.49" y="991.69" width="6.14" height="6.14"/></g></g><rect class="cls-22" x="2510.23" y="974.76" width="457.85" height="143.42" rx="35.44"/><text class="cls-8" transform="translate(2556.62 1072.37)">Connecting Keras to mlr3</text><text class="cls-19" transform="translate(2737.42 1045.43)">keras</text><g id="Artboard-Copy-5" data-name="Artboard-Copy"><g id="Group-5" data-name="Group"><g id="m-5" data-name="m" class="cls-1"><text class="cls-15" transform="translate(2471.67 1222.14)">m</text></g><g id="l-5" data-name="l" class="cls-1"><text class="cls-15" transform="translate(2520.08 1222.14)">l</text></g><g id="r-10" data-name="r"><text class="cls-15" transform="translate(2534.93 1222.14)">r</text></g><g id="r-11" data-name="r"><text class="cls-16" transform="translate(2557.29 1189.71)">3</text></g></g><g id="Group-2-6" data-name="Group-2"><rect id="Rectangle-37" data-name="Rectangle" class="cls-4" x="2466.76" y="1183.75" width="6.14" height="6.14"/><rect id="Rectangle-38" data-name="Rectangle" class="cls-4" x="2459.08" y="1183.75" width="6.14" height="6.14"/><rect id="Rectangle-39" data-name="Rectangle" class="cls-4" x="2451.4" y="1183.75" width="6.14" height="6.14"/><rect id="Rectangle-40" data-name="Rectangle" class="cls-4" x="2466.76" y="1176.07" width="6.14" height="6.14"/><rect id="Rectangle-41" data-name="Rectangle" class="cls-4" x="2459.08" y="1176.07" width="6.14" height="6.14"/><rect id="Rectangle-42" data-name="Rectangle" class="cls-4" x="2451.4" y="1176.07" width="6.14" height="6.14"/><rect id="Rectangle-43" data-name="Rectangle" class="cls-4" x="889.65" y="822.59" width="6.14" height="6.14" transform="translate(1236.32 1215.81) rotate(-45)"/><rect id="Rectangle-44" data-name="Rectangle" class="cls-4" x="2466.76" y="1168.39" width="6.14" height="6.14"/><rect id="Rectangle-45" data-name="Rectangle" class="cls-4" x="2459.08" y="1168.39" width="6.14" height="6.14"/></g></g><rect class="cls-20" x="2361.82" y="1151.46" width="457.85" height="143.42" rx="35.44"/><text class="cls-8" transform="translate(2475.01 1264.59)">Feature Filtering</text><text class="cls-19" transform="translate(2578.01 1222.14)">filters</text><g id="Artboard-Copy-6" data-name="Artboard-Copy"><g id="Group-6" data-name="Group"><g id="m-6" data-name="m" class="cls-1"><text class="cls-15" transform="translate(2467.45 1398.84)">m</text></g><g id="l-6" data-name="l" class="cls-1"><text class="cls-15" transform="translate(2515.86 1398.84)">l</text></g><g id="r-12" data-name="r"><text class="cls-15" transform="translate(2530.71 1398.84)">r</text></g><g id="r-13" data-name="r"><text class="cls-16" transform="translate(2553.07 1366.41)">3</text></g></g><g id="Group-2-7" data-name="Group-2"><rect id="Rectangle-46" data-name="Rectangle" class="cls-4" x="2462.53" y="1360.45" width="6.14" height="6.14"/><rect id="Rectangle-47" data-name="Rectangle" class="cls-4" x="2454.86" y="1360.45" width="6.14" height="6.14"/><rect id="Rectangle-48" data-name="Rectangle" class="cls-4" x="2447.18" y="1360.45" width="6.14" height="6.14"/><rect id="Rectangle-49" data-name="Rectangle" class="cls-4" x="2462.53" y="1352.78" width="6.14" height="6.14"/><rect id="Rectangle-50" data-name="Rectangle" class="cls-4" x="2454.86" y="1352.78" width="6.14" height="6.14"/><rect id="Rectangle-51" data-name="Rectangle" class="cls-4" x="2447.18" y="1352.78" width="6.14" height="6.14"/><rect id="Rectangle-52" data-name="Rectangle" class="cls-4" x="885.43" y="999.29" width="6.14" height="6.14" transform="translate(1110.14 1264.58) rotate(-45)"/><rect id="Rectangle-53" data-name="Rectangle" class="cls-4" x="2462.53" y="1345.1" width="6.14" height="6.14"/><rect id="Rectangle-54" data-name="Rectangle" class="cls-4" x="2454.86" y="1345.1" width="6.14" height="6.14"/></g></g><rect class="cls-20" x="2363.6" y="1328.17" width="457.85" height="143.42" rx="35.44"/><text class="cls-8" transform="translate(2404.52 1441.3)"><tspan class="cls-11">W</tspan><tspan x="27.77" y="0">rapper Feature Selection</tspan></text><text class="cls-19" transform="translate(2573.78 1398.84)">fswrap</text><path class="cls-5" d="M776.66,514.47H955.1" transform="translate(1558.68 342.73)"/><path class="cls-5" d="M776.66,514.47c0,104,77.44,188.23,173.15,188.23" transform="translate(1558.68 342.73)"/><path class="cls-5" d="M776.66,514.47c0-120.2,78.22-217.47,174.89-217.47" transform="translate(1558.68 342.73)"/><path class="cls-5" d="M626.47,880.44a176.58,176.58,0,0,0,176.67,176.7" transform="translate(1558.68 342.73)"/><path class="cls-5" d="M626.47,880.44c0-.57,77.44-1,173.15-1" transform="translate(1558.68 342.73)"/><line class="cls-5" x1="1456.04" y1="979.65" x2="1456.04" y2="1158.83"/><line class="cls-5" x1="1225.33" y1="854.24" x2="973.58" y2="854.24"/><line class="cls-5" x1="1456.04" y1="733.73" x2="1454.26" y2="559.27"/><line class="cls-5" x1="1683.19" y1="857.2" x2="1967.23" y2="857.2"/><path class="cls-5" d="M443.3,212.84c0,166.72-142.59,301.63-318.8,301.63" transform="translate(1558.68 342.73)"/><path class="cls-5" d="M443.3,808.73c0-162.65-142.59-294.26-318.8-294.26" transform="translate(1558.68 342.73)"/><path class="cls-5" d="M-648.59,212.84c0,165.09,141,298.67,315.24,298.67" transform="translate(1558.68 342.73)"/><path class="cls-5" d="M-648.59,816.1c0-168.36,141-304.59,315.24-304.59" transform="translate(1558.68 342.73)"/><g id="Artboard-Copy-7" data-name="Artboard-Copy"><g id="Group-7" data-name="Group"><g id="m-7" data-name="m" class="cls-1"><text class="cls-15" transform="translate(1738.14 1440.26)">m</text></g><g id="l-7" data-name="l" class="cls-1"><text class="cls-15" transform="translate(1786.54 1440.26)">l</text></g><g id="r-14" data-name="r"><text class="cls-15" transform="translate(1801.4 1440.26)">r</text></g><g id="r-15" data-name="r"><text class="cls-16" transform="translate(1823.76 1407.83)">3</text></g></g><g id="Group-2-8" data-name="Group-2"><rect id="Rectangle-55" data-name="Rectangle" class="cls-4" x="1733.22" y="1401.87" width="6.14" height="6.14"/><rect id="Rectangle-56" data-name="Rectangle" class="cls-4" x="1725.54" y="1401.87" width="6.14" height="6.14"/><rect id="Rectangle-57" data-name="Rectangle" class="cls-4" x="1717.87" y="1401.87" width="6.14" height="6.14"/><rect id="Rectangle-58" data-name="Rectangle" class="cls-4" x="1733.22" y="1394.19" width="6.14" height="6.14"/><rect id="Rectangle-59" data-name="Rectangle" class="cls-4" x="1725.54" y="1394.19" width="6.14" height="6.14"/><rect id="Rectangle-60" data-name="Rectangle" class="cls-4" x="1717.87" y="1394.19" width="6.14" height="6.14"/><rect id="Rectangle-61" data-name="Rectangle" class="cls-4" x="156.11" y="1040.71" width="6.14" height="6.14" transform="translate(867.24 761.01) rotate(-45)"/><rect id="Rectangle-62" data-name="Rectangle" class="cls-4" x="1733.22" y="1386.52" width="6.14" height="6.14"/><rect id="Rectangle-63" data-name="Rectangle" class="cls-4" x="1725.54" y="1386.52" width="6.14" height="6.14"/></g></g><rect class="cls-17" x="1629.28" y="1369.59" width="457.85" height="143.42" rx="35.44"/><text class="cls-8" transform="translate(1691.9 1482.71)">Hyperparameter <tspan class="cls-12" x="238.45" y="0">T</tspan><tspan x="254.55" y="0">uning</tspan></text><text class="cls-19" transform="translate(1844.47 1440.26)">tuning</text><g id="Artboard-Copy-8" data-name="Artboard-Copy"><g id="Group-8" data-name="Group"><g id="m-8" data-name="m" class="cls-1"><text class="cls-15" transform="translate(1680.14 1647.42)">m</text></g><g id="l-8" data-name="l" class="cls-1"><text class="cls-15" transform="translate(1728.54 1647.42)">l</text></g><g id="r-16" data-name="r"><text class="cls-15" transform="translate(1743.4 1647.42)">r</text></g><g id="r-17" data-name="r"><text class="cls-16" transform="translate(1765.76 1614.99)">3</text></g></g><g id="Group-2-9" data-name="Group-2"><rect id="Rectangle-64" data-name="Rectangle" class="cls-4" x="1675.22" y="1609.03" width="6.14" height="6.14"/><rect id="Rectangle-65" data-name="Rectangle" class="cls-4" x="1667.54" y="1609.03" width="6.14" height="6.14"/><rect id="Rectangle-66" data-name="Rectangle" class="cls-4" x="1659.87" y="1609.03" width="6.14" height="6.14"/><rect id="Rectangle-67" data-name="Rectangle" class="cls-4" x="1675.22" y="1601.35" width="6.14" height="6.14"/><rect id="Rectangle-68" data-name="Rectangle" class="cls-4" x="1667.54" y="1601.35" width="6.14" height="6.14"/><rect id="Rectangle-69" data-name="Rectangle" class="cls-4" x="1659.87" y="1601.35" width="6.14" height="6.14"/><rect id="Rectangle-70" data-name="Rectangle" class="cls-4" x="98.11" y="1247.87" width="6.14" height="6.14" transform="translate(703.77 780.67) rotate(-45)"/><rect id="Rectangle-71" data-name="Rectangle" class="cls-4" x="1675.22" y="1593.67" width="6.14" height="6.14"/><rect id="Rectangle-72" data-name="Rectangle" class="cls-4" x="1667.54" y="1593.67" width="6.14" height="6.14"/></g></g><rect class="cls-20" x="1629.28" y="1576.74" width="457.85" height="143.42" rx="35.44"/><text class="cls-8" transform="translate(1691.9 1689.87)">Hyperparameter <tspan class="cls-12" x="238.45" y="0">T</tspan><tspan x="254.55" y="0">uning</tspan></text><text class="cls-19" transform="translate(1786.47 1647.42)">hyperband</text><g id="Artboard-Copy-9" data-name="Artboard-Copy"><g id="Group-9" data-name="Group"><g id="m-9" data-name="m" class="cls-1"><text class="cls-15" transform="translate(1750.14 1854.57)">m</text></g><g id="l-9" data-name="l" class="cls-1"><text class="cls-15" transform="translate(1798.54 1854.57)">l</text></g><g id="r-18" data-name="r"><text class="cls-15" transform="translate(1813.4 1854.57)">r</text></g><g id="r-19" data-name="r"><text class="cls-16" transform="translate(1835.76 1822.14)">3</text></g></g><g id="Group-2-10" data-name="Group-2"><rect id="Rectangle-73" data-name="Rectangle" class="cls-4" x="1745.22" y="1816.18" width="6.14" height="6.14"/><rect id="Rectangle-74" data-name="Rectangle" class="cls-4" x="1737.54" y="1816.18" width="6.14" height="6.14"/><rect id="Rectangle-75" data-name="Rectangle" class="cls-4" x="1729.87" y="1816.18" width="6.14" height="6.14"/><rect id="Rectangle-76" data-name="Rectangle" class="cls-4" x="1745.22" y="1808.5" width="6.14" height="6.14"/><rect id="Rectangle-77" data-name="Rectangle" class="cls-4" x="1737.54" y="1808.5" width="6.14" height="6.14"/><rect id="Rectangle-78" data-name="Rectangle" class="cls-4" x="1729.87" y="1808.5" width="6.14" height="6.14"/><rect id="Rectangle-79" data-name="Rectangle" class="cls-4" x="168.11" y="1455.02" width="6.14" height="6.14" transform="translate(577.79 890.84) rotate(-45)"/><rect id="Rectangle-80" data-name="Rectangle" class="cls-4" x="1745.22" y="1800.83" width="6.14" height="6.14"/><rect id="Rectangle-81" data-name="Rectangle" class="cls-4" x="1737.54" y="1800.83" width="6.14" height="6.14"/></g></g><rect class="cls-22" x="1629.28" y="1783.9" width="457.85" height="143.42" rx="35.44"/><text class="cls-8" transform="translate(1699.12 1897.03)">Bayesian Optimization</text><text class="cls-19" transform="translate(1856.47 1854.57)">mbo</text><path class="cls-5" d="M-104.42,944.78c0,85,78.28,153.78,175,153.78" transform="translate(1558.68 342.73)"/><path class="cls-5" d="M-104.42,944.78c0,199.51,78.28,360.94,175,360.94" transform="translate(1558.68 342.73)"/><path class="cls-5" d="M-104.42,944.78c0,314,78.28,568.09,175,568.09" transform="translate(1558.68 342.73)"/><rect class="cls-17" x="852.64" y="1782.86" width="457.85" height="143.42" rx="35.44"/><text class="cls-8" transform="translate(974.11 1895.99)">Parameter Sets</text><text class="cls-19" transform="translate(968.82 1853.54)">paradox</text><path class="cls-5" d="M-104.42,944.78c0,314.6-64.3,569.17-143.77,569.17" transform="translate(1558.68 342.73)"/><g id="Artboard-Copy-10" data-name="Artboard-Copy"><g id="Group-10" data-name="Group"><g id="m-10" data-name="m" class="cls-1"><text class="cls-15" transform="translate(975.27 1646.38)">m</text></g><g id="l-10" data-name="l" class="cls-1"><text class="cls-15" transform="translate(1023.68 1646.38)">l</text></g><g id="r-20" data-name="r"><text class="cls-15" transform="translate(1038.54 1646.38)">r</text></g><g id="r-21" data-name="r"><text class="cls-16" transform="translate(1060.9 1613.95)">3</text></g></g><g id="Group-2-11" data-name="Group-2"><rect id="Rectangle-82" data-name="Rectangle" class="cls-4" x="970.36" y="1607.99" width="6.14" height="6.14"/><rect id="Rectangle-83" data-name="Rectangle" class="cls-4" x="962.68" y="1607.99" width="6.14" height="6.14"/><rect id="Rectangle-84" data-name="Rectangle" class="cls-4" x="955" y="1607.99" width="6.14" height="6.14"/><rect id="Rectangle-85" data-name="Rectangle" class="cls-4" x="970.36" y="1600.31" width="6.14" height="6.14"/><rect id="Rectangle-86" data-name="Rectangle" class="cls-4" x="962.68" y="1600.31" width="6.14" height="6.14"/><rect id="Rectangle-87" data-name="Rectangle" class="cls-4" x="955" y="1600.31" width="6.14" height="6.14"/><rect id="Rectangle-88" data-name="Rectangle" class="cls-4" x="-606.75" y="1246.83" width="6.14" height="6.14" transform="translate(498.05 281.96) rotate(-45)"/><rect id="Rectangle-89" data-name="Rectangle" class="cls-4" x="970.36" y="1592.64" width="6.14" height="6.14"/><rect id="Rectangle-90" data-name="Rectangle" class="cls-4" x="962.68" y="1592.64" width="6.14" height="6.14"/></g></g><rect class="cls-23" x="854.42" y="1575.71" width="457.85" height="143.42" rx="35.44"/><text class="cls-8" transform="translate(868.68 1688.83)"><tspan class="cls-11">T</tspan><tspan x="17.78" y="0">ime-Series &amp; Functional Data</tspan></text><text class="cls-19" transform="translate(1081.61 1646.38)">time</text><path class="cls-5" d="M-648.59,944.78c0,134.42,159.56,193.84,171.51,289.23" transform="translate(1558.68 342.73)"/><g id="Artboard-Copy-11" data-name="Artboard-Copy"><g id="Group-11" data-name="Group"><g id="m-11" data-name="m" class="cls-1"><text class="cls-15" transform="translate(82.38 1425.63)">m</text></g><g id="l-11" data-name="l" class="cls-1"><text class="cls-15" transform="translate(130.79 1425.63)">l</text></g><g id="r-22" data-name="r"><text class="cls-15" transform="translate(145.64 1425.63)">r</text></g><g id="r-23" data-name="r"><text class="cls-16" transform="translate(168 1393.2)">3</text></g></g><g id="Group-2-12" data-name="Group-2"><rect id="Rectangle-91" data-name="Rectangle" class="cls-4" x="77.47" y="1387.24" width="6.14" height="6.14"/><rect id="Rectangle-92" data-name="Rectangle" class="cls-4" x="69.79" y="1387.24" width="6.14" height="6.14"/><rect id="Rectangle-93" data-name="Rectangle" class="cls-4" x="62.11" y="1387.24" width="6.14" height="6.14"/><rect id="Rectangle-94" data-name="Rectangle" class="cls-4" x="77.47" y="1379.56" width="6.14" height="6.14"/><rect id="Rectangle-95" data-name="Rectangle" class="cls-4" x="69.79" y="1379.56" width="6.14" height="6.14"/><rect id="Rectangle-96" data-name="Rectangle" class="cls-4" x="62.11" y="1379.56" width="6.14" height="6.14"/><rect id="Rectangle-97" data-name="Rectangle" class="cls-4" x="-1499.64" y="1026.08" width="6.14" height="6.14" transform="translate(392.63 -414.07) rotate(-45)"/><rect id="Rectangle-98" data-name="Rectangle" class="cls-4" x="77.47" y="1371.88" width="6.14" height="6.14"/><rect id="Rectangle-99" data-name="Rectangle" class="cls-4" x="69.79" y="1371.88" width="6.14" height="6.14"/></g></g><rect class="cls-22" x="6.29" y="1351.75" width="457.85" height="174.46" rx="35.44"/><text class="cls-8" transform="translate(64.47 1464.88)">Probabilistic Learning &amp;<tspan x="48.85" y="36">Survival</tspan><tspan class="cls-24" x="165.59" y="36"> </tspan><tspan x="172.81" y="36">Analysis</tspan></text><text class="cls-19" transform="translate(188.71 1425.63)">proba</text><g id="Artboard-Copy-12" data-name="Artboard-Copy"><g id="Group-12" data-name="Group"><g id="m-12" data-name="m" class="cls-1"><text class="cls-25" transform="translate(40.62 1226.64)">m</text></g><g id="l-12" data-name="l" class="cls-1"><text class="cls-25" transform="translate(80.53 1226.64)">l</text></g><g id="r-24" data-name="r"><text class="cls-25" transform="translate(92.77 1226.64)">r</text></g><g id="r-25" data-name="r"><text class="cls-26" transform="translate(111.2 1199.91)">3</text></g></g><g id="Group-2-13" data-name="Group-2"><rect id="Rectangle-100" data-name="Rectangle" class="cls-4" x="36.57" y="1194.99" width="5.06" height="5.06"/><rect id="Rectangle-101" data-name="Rectangle" class="cls-4" x="30.24" y="1194.99" width="5.06" height="5.06"/><rect id="Rectangle-102" data-name="Rectangle" class="cls-4" x="23.91" y="1194.99" width="5.06" height="5.06"/><rect id="Rectangle-103" data-name="Rectangle" class="cls-4" x="36.57" y="1188.66" width="5.06" height="5.06"/><rect id="Rectangle-104" data-name="Rectangle" class="cls-4" x="30.24" y="1188.66" width="5.06" height="5.06"/><rect id="Rectangle-105" data-name="Rectangle" class="cls-4" x="23.91" y="1188.66" width="5.06" height="5.06"/><rect id="Rectangle-106" data-name="Rectangle" class="cls-4" x="-1537.3" y="837.07" width="5.06" height="5.06" transform="translate(515.47 -496.6) rotate(-45)"/><rect id="Rectangle-107" data-name="Rectangle" class="cls-4" x="36.57" y="1182.34" width="5.06" height="5.06"/><rect id="Rectangle-108" data-name="Rectangle" class="cls-4" x="30.24" y="1182.34" width="5.06" height="5.06"/></g></g><text class="cls-8" transform="translate(24.3 1269.21)">Spatial learners &amp; resampling</text><text class="cls-27" transform="translate(128.27 1226.64)">spatiotemporal</text><g id="Artboard-Copy-13" data-name="Artboard-Copy"><g id="Group-13" data-name="Group"><g id="m-13" data-name="m" class="cls-1"><text class="cls-15" transform="translate(80.6 1008.75)">m</text></g><g id="l-13" data-name="l" class="cls-1"><text class="cls-15" transform="translate(129.01 1008.75)">l</text></g><g id="r-26" data-name="r"><text class="cls-15" transform="translate(143.86 1008.75)">r</text></g><g id="r-27" data-name="r"><text class="cls-16" transform="translate(166.23 976.32)">3</text></g></g><g id="Group-2-14" data-name="Group-2"><rect id="Rectangle-109" data-name="Rectangle" class="cls-4" x="75.69" y="970.36" width="6.14" height="6.14"/><rect id="Rectangle-110" data-name="Rectangle" class="cls-4" x="68.01" y="970.36" width="6.14" height="6.14"/><rect id="Rectangle-111" data-name="Rectangle" class="cls-4" x="60.33" y="970.36" width="6.14" height="6.14"/><rect id="Rectangle-112" data-name="Rectangle" class="cls-4" x="75.69" y="962.68" width="6.14" height="6.14"/><rect id="Rectangle-113" data-name="Rectangle" class="cls-4" x="68.01" y="962.68" width="6.14" height="6.14"/><rect id="Rectangle-114" data-name="Rectangle" class="cls-4" x="60.33" y="962.68" width="6.14" height="6.14"/><rect id="Rectangle-115" data-name="Rectangle" class="cls-4" x="-1501.42" y="609.2" width="6.14" height="6.14" transform="translate(686.88 -537.43) rotate(-45)"/><rect id="Rectangle-116" data-name="Rectangle" class="cls-4" x="75.69" y="955" width="6.14" height="6.14"/><rect id="Rectangle-117" data-name="Rectangle" class="cls-4" x="68.01" y="955" width="6.14" height="6.14"/></g></g><rect class="cls-22" x="4.51" y="934.87" width="457.85" height="174.46" rx="35.44"/><text class="cls-8" transform="translate(52.09 1048)"><tspan class="cls-11">T</tspan><tspan x="17.78" y="0">ime-series forecasting &amp;</tspan><tspan x="103.1" y="36">resampling</tspan></text><text class="cls-19" transform="translate(186.94 1008.75)">forecast</text><g id="Artboard-Copy-14" data-name="Artboard-Copy"><g id="Group-14" data-name="Group"><g id="m-14" data-name="m" class="cls-1"><text class="cls-15" transform="translate(100.59 1855.65)">m</text></g><g id="l-14" data-name="l" class="cls-1"><text class="cls-15" transform="translate(149 1855.65)">l</text></g><g id="r-28" data-name="r"><text class="cls-15" transform="translate(163.86 1855.65)">r</text></g><g id="r-29" data-name="r"><text class="cls-16" transform="translate(186.22 1823.22)">3</text></g></g><g id="Group-2-15" data-name="Group-2"><rect id="Rectangle-118" data-name="Rectangle" class="cls-4" x="95.68" y="1817.26" width="6.14" height="6.14"/><rect id="Rectangle-119" data-name="Rectangle" class="cls-4" x="88" y="1817.26" width="6.14" height="6.14"/><rect id="Rectangle-120" data-name="Rectangle" class="cls-4" x="80.32" y="1817.26" width="6.14" height="6.14"/><rect id="Rectangle-121" data-name="Rectangle" class="cls-4" x="95.68" y="1809.58" width="6.14" height="6.14"/><rect id="Rectangle-122" data-name="Rectangle" class="cls-4" x="88" y="1809.58" width="6.14" height="6.14"/><rect id="Rectangle-123" data-name="Rectangle" class="cls-4" x="80.32" y="1809.58" width="6.14" height="6.14"/><rect id="Rectangle-124" data-name="Rectangle" class="cls-4" x="-1481.43" y="1456.1" width="6.14" height="6.14" transform="translate(93.89 -275.24) rotate(-45)"/><rect id="Rectangle-125" data-name="Rectangle" class="cls-4" x="95.68" y="1801.9" width="6.14" height="6.14"/><rect id="Rectangle-126" data-name="Rectangle" class="cls-4" x="88" y="1801.9" width="6.14" height="6.14"/></g></g><rect class="cls-28" x="5.74" y="1784.97" width="457.85" height="143.42" rx="35.44"/><text class="cls-8" transform="translate(162.27 1898.1)">Clustering</text><text class="cls-19" transform="translate(206.93 1855.65)">cluster</text><g id="Artboard-Copy-15" data-name="Artboard-Copy"><g id="Group-15" data-name="Group"><g id="m-15" data-name="m" class="cls-1"><text class="cls-15" transform="translate(105.85 1647.42)">m</text></g><g id="l-15" data-name="l" class="cls-1"><text class="cls-15" transform="translate(154.26 1647.42)">l</text></g><g id="r-30" data-name="r"><text class="cls-15" transform="translate(169.11 1647.42)">r</text></g><g id="r-31" data-name="r"><text class="cls-16" transform="translate(191.47 1614.99)">3</text></g></g><g id="Group-2-16" data-name="Group-2"><rect id="Rectangle-127" data-name="Rectangle" class="cls-4" x="100.94" y="1609.03" width="6.14" height="6.14"/><rect id="Rectangle-128" data-name="Rectangle" class="cls-4" x="93.26" y="1609.03" width="6.14" height="6.14"/><rect id="Rectangle-129" data-name="Rectangle" class="cls-4" x="85.58" y="1609.03" width="6.14" height="6.14"/><rect id="Rectangle-130" data-name="Rectangle" class="cls-4" x="100.94" y="1601.35" width="6.14" height="6.14"/><rect id="Rectangle-131" data-name="Rectangle" class="cls-4" x="93.26" y="1601.35" width="6.14" height="6.14"/><rect id="Rectangle-132" data-name="Rectangle" class="cls-4" x="85.58" y="1601.35" width="6.14" height="6.14"/><rect id="Rectangle-133" data-name="Rectangle" class="cls-4" x="-1476.17" y="1247.87" width="6.14" height="6.14" transform="translate(242.67 -332.52) rotate(-45)"/><rect id="Rectangle-134" data-name="Rectangle" class="cls-4" x="100.94" y="1593.67" width="6.14" height="6.14"/><rect id="Rectangle-135" data-name="Rectangle" class="cls-4" x="93.26" y="1593.67" width="6.14" height="6.14"/></g></g><rect class="cls-20" x="4" y="1576.74" width="457.85" height="143.42" rx="35.44"/><text class="cls-8" transform="translate(23.29 1689.87)">Learning with Ordinal <tspan class="cls-12" x="316.68" y="0">T</tspan><tspan x="332.78" y="0">argets</tspan></text><text class="cls-19" transform="translate(212.19 1647.42)">ordinal</text><rect class="cls-20" x="4.51" y="1158.83" width="457.85" height="143.42" rx="35.44"/><g id="Artboard-Copy-16" data-name="Artboard-Copy"><g id="Group-16" data-name="Group"><g id="m-16" data-name="m" class="cls-1"><text class="cls-15" transform="translate(68.79 744.82)">m</text></g><g id="l-16" data-name="l" class="cls-1"><text class="cls-15" transform="translate(117.2 744.82)">l</text></g><g id="r-32" data-name="r"><text class="cls-15" transform="translate(132.05 744.82)">r</text></g><g id="r-33" data-name="r"><text class="cls-16" transform="translate(154.41 712.39)">3</text></g></g><g id="Group-2-17" data-name="Group-2"><rect id="Rectangle-136" data-name="Rectangle" class="cls-4" x="63.88" y="706.43" width="6.14" height="6.14"/><rect id="Rectangle-137" data-name="Rectangle" class="cls-4" x="56.2" y="706.43" width="6.14" height="6.14"/><rect id="Rectangle-138" data-name="Rectangle" class="cls-4" x="48.52" y="706.43" width="6.14" height="6.14"/><rect id="Rectangle-139" data-name="Rectangle" class="cls-4" x="63.88" y="698.75" width="6.14" height="6.14"/><rect id="Rectangle-140" data-name="Rectangle" class="cls-4" x="56.2" y="698.75" width="6.14" height="6.14"/><rect id="Rectangle-141" data-name="Rectangle" class="cls-4" x="48.52" y="698.75" width="6.14" height="6.14"/><rect id="Rectangle-142" data-name="Rectangle" class="cls-4" x="-1513.23" y="345.27" width="6.14" height="6.14" transform="translate(870.05 -623.09) rotate(-45)"/><rect id="Rectangle-143" data-name="Rectangle" class="cls-4" x="63.88" y="691.07" width="6.14" height="6.14"/><rect id="Rectangle-144" data-name="Rectangle" class="cls-4" x="56.2" y="691.07" width="6.14" height="6.14"/></g></g><rect class="cls-17" x="8.94" y="674.14" width="457.85" height="143.42" rx="35.44"/><text class="cls-8" transform="translate(74.56 787.27)">Performance Measures</text><text class="cls-19" transform="translate(175.12 744.82)">measures</text><g id="Artboard-Copy-17" data-name="Artboard-Copy"><g id="Group-17" data-name="Group"><g id="m-17" data-name="m" class="cls-1"><text class="cls-15" transform="translate(112.57 564.35)">m</text></g><g id="l-17" data-name="l" class="cls-1"><text class="cls-15" transform="translate(160.98 564.35)">l</text></g><g id="r-34" data-name="r"><text class="cls-15" transform="translate(175.83 564.35)">r</text></g><g id="r-35" data-name="r"><text class="cls-16" transform="translate(198.19 531.93)">3</text></g></g><g id="Group-2-18" data-name="Group-2"><rect id="Rectangle-145" data-name="Rectangle" class="cls-4" x="107.65" y="525.96" width="6.14" height="6.14"/><rect id="Rectangle-146" data-name="Rectangle" class="cls-4" x="99.98" y="525.96" width="6.14" height="6.14"/><rect id="Rectangle-147" data-name="Rectangle" class="cls-4" x="92.3" y="525.96" width="6.14" height="6.14"/><rect id="Rectangle-148" data-name="Rectangle" class="cls-4" x="107.65" y="518.29" width="6.14" height="6.14"/><rect id="Rectangle-149" data-name="Rectangle" class="cls-4" x="99.98" y="518.29" width="6.14" height="6.14"/><rect id="Rectangle-150" data-name="Rectangle" class="cls-4" x="92.3" y="518.29" width="6.14" height="6.14"/><rect id="Rectangle-151" data-name="Rectangle" class="cls-4" x="-1469.45" y="164.81" width="6.14" height="6.14" transform="translate(1010.48 -644.99) rotate(-45)"/><rect id="Rectangle-152" data-name="Rectangle" class="cls-4" x="107.65" y="510.61" width="6.14" height="6.14"/><rect id="Rectangle-153" data-name="Rectangle" class="cls-4" x="99.98" y="510.61" width="6.14" height="6.14"/></g></g><rect class="cls-17" x="10.72" y="493.68" width="457.85" height="143.42" rx="35.44"/><text class="cls-8" transform="translate(74.72 606.81)">Devel Helper Functions</text><text class="cls-19" transform="translate(218.9 564.35)">misc</text><path class="cls-5" d="M-831.76,883.9c0-104.11-118.33-188.36-264.56-188.36" transform="translate(1558.68 342.73)"/><path class="cls-5" d="M-831.76,883.9c0,2.16-118.33,3.91-264.56,3.91" transform="translate(1558.68 342.73)"/><path class="cls-5" d="M-831.76,883.9c0,108.43-118.33,196.17-264.56,196.17" transform="translate(1558.68 342.73)"/><path class="cls-5" d="M-648.59,944.78c0,198.36-199.46,358.87-445.95,358.87" transform="translate(1558.68 342.73)"/><path class="cls-5" d="M-648.59,944.78c0,312.86-200.48,566-448.24,566" transform="translate(1558.68 342.73)"/><g id="Artboard-Copy-18" data-name="Artboard-Copy"><g id="Group-18" data-name="Group"><g id="m-18" data-name="m" class="cls-1"><text class="cls-15" transform="translate(434.41 250.84)">m</text></g><g id="l-18" data-name="l" class="cls-1"><text class="cls-15" transform="translate(482.82 250.84)">l</text></g><g id="r-36" data-name="r"><text class="cls-15" transform="translate(497.67 250.84)">r</text></g><g id="r-37" data-name="r"><text class="cls-16" transform="translate(520.03 218.42)">3</text></g></g><g id="Group-2-19" data-name="Group-2"><rect id="Rectangle-154" data-name="Rectangle" class="cls-4" x="429.5" y="212.45" width="6.14" height="6.14"/><rect id="Rectangle-155" data-name="Rectangle" class="cls-4" x="421.82" y="212.45" width="6.14" height="6.14"/><rect id="Rectangle-156" data-name="Rectangle" class="cls-4" x="414.14" y="212.45" width="6.14" height="6.14"/><rect id="Rectangle-157" data-name="Rectangle" class="cls-4" x="429.5" y="204.78" width="6.14" height="6.14"/><rect id="Rectangle-158" data-name="Rectangle" class="cls-4" x="421.82" y="204.78" width="6.14" height="6.14"/><rect id="Rectangle-159" data-name="Rectangle" class="cls-4" x="414.14" y="204.78" width="6.14" height="6.14"/><rect id="Rectangle-160" data-name="Rectangle" class="cls-4" x="-1147.61" y="-148.7" width="6.14" height="6.14" transform="translate(1326.43 -509.24) rotate(-45)"/><rect id="Rectangle-161" data-name="Rectangle" class="cls-4" x="429.5" y="197.1" width="6.14" height="6.14"/><rect id="Rectangle-162" data-name="Rectangle" class="cls-4" x="421.82" y="197.1" width="6.14" height="6.14"/></g></g><rect class="cls-17" x="332.56" y="180.17" width="457.85" height="143.42" rx="35.44"/><text class="cls-8" transform="translate(400.69 293.3)">DBs as Data Backends</text><text class="cls-19" transform="translate(540.74 250.84)">db</text><g id="Artboard-Copy-19" data-name="Artboard-Copy"><g id="Group-19" data-name="Group"><g id="m-19" data-name="m" class="cls-1"><text class="cls-15" transform="translate(1962.67 249.81)">m</text></g><g id="l-19" data-name="l" class="cls-1"><text class="cls-15" transform="translate(2011.08 249.81)">l</text></g><g id="r-38" data-name="r"><text class="cls-15" transform="translate(2025.93 249.81)">r</text></g><g id="r-39" data-name="r"><text class="cls-16" transform="translate(2048.29 217.38)">3</text></g></g><g id="Group-2-20" data-name="Group-2"><rect id="Rectangle-163" data-name="Rectangle" class="cls-4" x="1957.75" y="211.42" width="6.14" height="6.14"/><rect id="Rectangle-164" data-name="Rectangle" class="cls-4" x="1950.07" y="211.42" width="6.14" height="6.14"/><rect id="Rectangle-165" data-name="Rectangle" class="cls-4" x="1942.4" y="211.42" width="6.14" height="6.14"/><rect id="Rectangle-166" data-name="Rectangle" class="cls-4" x="1957.75" y="203.74" width="6.14" height="6.14"/><rect id="Rectangle-167" data-name="Rectangle" class="cls-4" x="1950.07" y="203.74" width="6.14" height="6.14"/><rect id="Rectangle-168" data-name="Rectangle" class="cls-4" x="1942.4" y="203.74" width="6.14" height="6.14"/><rect id="Rectangle-169" data-name="Rectangle" class="cls-4" x="380.64" y="-149.74" width="6.14" height="6.14" transform="translate(1774.78 571.1) rotate(-45)"/><rect id="Rectangle-170" data-name="Rectangle" class="cls-4" x="1957.75" y="196.06" width="6.14" height="6.14"/><rect id="Rectangle-171" data-name="Rectangle" class="cls-4" x="1950.07" y="196.06" width="6.14" height="6.14"/></g></g><rect class="cls-20" x="1818.81" y="179.13" width="457.85" height="143.42" rx="35.44"/><text class="cls-8" transform="translate(1958.11 292.26)"><tspan class="cls-11">V</tspan><tspan x="19.47" y="0">isualization</tspan></text><text class="cls-19" transform="translate(2069 249.81)">viz</text><rect class="cls-17" x="2508.49" y="180.17" width="457.85" height="174.46" rx="35.44"/><text class="cls-8" transform="translate(2626.65 293.3)">Preprocessing, <tspan x="-49.18" y="36">pipelines &amp; ensembles</tspan></text><text class="cls-19" transform="translate(2681.91 254.05)">pipelines</text><g id="Artboard-Copy-20" data-name="Artboard-Copy"><g id="Group-20" data-name="Group"><g id="m-20" data-name="m" class="cls-1"><text class="cls-15" transform="translate(2575.58 254.05)">m</text></g><g id="l-20" data-name="l" class="cls-1"><text class="cls-15" transform="translate(2623.99 254.05)">l</text></g><g id="r-40" data-name="r"><text class="cls-15" transform="translate(2638.84 254.05)">r</text></g><g id="r-41" data-name="r"><text class="cls-16" transform="translate(2661.2 221.62)">3</text></g></g><g id="Group-2-21" data-name="Group-2"><rect id="Rectangle-172" data-name="Rectangle" class="cls-4" x="2570.66" y="215.66" width="6.14" height="6.14"/><rect id="Rectangle-173" data-name="Rectangle" class="cls-4" x="2562.99" y="215.66" width="6.14" height="6.14"/><rect id="Rectangle-174" data-name="Rectangle" class="cls-4" x="2555.31" y="215.66" width="6.14" height="6.14"/><rect id="Rectangle-175" data-name="Rectangle" class="cls-4" x="2570.66" y="207.98" width="6.14" height="6.14"/><rect id="Rectangle-176" data-name="Rectangle" class="cls-4" x="2562.99" y="207.98" width="6.14" height="6.14"/><rect id="Rectangle-177" data-name="Rectangle" class="cls-4" x="2555.31" y="207.98" width="6.14" height="6.14"/><rect id="Rectangle-178" data-name="Rectangle" class="cls-4" x="993.56" y="-145.5" width="6.14" height="6.14" transform="translate(1951.3 1005.74) rotate(-45)"/><rect id="Rectangle-179" data-name="Rectangle" class="cls-4" x="2570.66" y="200.3" width="6.14" height="6.14"/><rect id="Rectangle-180" data-name="Rectangle" class="cls-4" x="2562.99" y="200.3" width="6.14" height="6.14"/></g></g><path class="cls-5" d="M-648.59,77.6c0-91.91-53.53-166.29-119.68-166.29" transform="translate(1558.68 342.73)"/><path class="cls-5" d="M-951.44,514.47c0-61.55-62.82-111.35-140.45-111.35" transform="translate(1558.68 342.73)"/><path class="cls-5" d="M-951.44,514.47c0-161.3-62-291.81-138.67-291.81" transform="translate(1558.68 342.73)"/><path class="cls-5" d="M-104.42,84.16c0-97.88,163.05-177.08,364.55-177.08" transform="translate(1558.68 342.73)"/><path class="cls-5" d="M1178.73,11.9c0,75.5-247,136.6-552.26,136.6" transform="translate(1558.68 342.73)"/><rect class="cls-5" x="2336.74" y="1524.8" width="648.92" height="403.59" rx="35.44"/><rect class="cls-29" x="2368.33" y="1547.53" width="115.43" height="71.71" rx="15.9"/><rect class="cls-30" x="2368.33" y="1643" width="115.43" height="71.71" rx="15.9"/><rect class="cls-31" x="2368.33" y="1738.48" width="115.43" height="71.71" rx="15.9"/><rect class="cls-32" x="2368.33" y="1833.95" width="115.43" height="71.71" rx="15.9"/><text class="cls-33" transform="translate(2513.8 1595.27)"><tspan class="cls-11">W</tspan><tspan x="39.81" y="0">orking on CRAN</tspan></text><text class="cls-33" transform="translate(2513.8 1690.74)">Usable devel version</text><text class="cls-33" transform="translate(2513.8 1786.21)">Under development</text><text class="cls-33" transform="translate(2513.8 1881.68)">Planned, not started</text></svg>