<svg id="Ebene_1" data-name="Ebene 1" xmlns="http://www.w3.org/2000/svg" viewBox="0 0 2977.79 1934.3"><defs><style>.cls-1{fill:#d5e7d2;}.cls-1,.cls-15,.cls-17,.cls-2,.cls-3,.cls-4,.cls-5,.cls-6{stroke:#09648f;stroke-miterlimit:10;}.cls-1,.cls-15,.cls-2,.cls-5,.cls-6{stroke-width:8px;}.cls-2{fill:#d4eaed;}.cls-3,.cls-5{fill:#f2eccb;}.cls-3,.cls-4{stroke-width:5px;}.cls-4,.cls-6{fill:#f3dce2;}.cls-11,.cls-12,.cls-13,.cls-14,.cls-23,.cls-24,.cls-32,.cls-33,.cls-7,.cls-8,.cls-9{isolation:isolate;}.cls-8{font-size:72.59px;}.cls-11,.cls-13,.cls-16,.cls-18,.cls-22,.cls-23,.cls-25,.cls-27,.cls-28,.cls-29,.cls-30,.cls-32,.cls-34,.cls-36,.cls-37,.cls-38,.cls-8{fill:#1d1d1b;}.cls-11,.cls-12,.cls-13,.cls-14,.cls-16,.cls-18,.cls-22,.cls-23,.cls-24,.cls-25,.cls-27,.cls-28,.cls-29,.cls-30,.cls-32,.cls-33,.cls-34,.cls-36,.cls-37,.cls-38,.cls-8,.cls-9{font-family:Arial-BoldMT, Arial;font-weight:700;}.cls-9{font-size:40.4px;}.cls-10,.cls-12,.cls-14,.cls-24,.cls-33,.cls-9{fill:#06638e;}.cls-11{font-size:41.57px;}.cls-12{font-size:23.14px;}.cls-13{font-size:120.54px;}.cls-14{font-size:67.08px;}.cls-15{fill:none;}.cls-16{font-size:30px;}.cls-17{fill:#b8b7b7;stroke-width:4px;}.cls-18{font-size:48px;}.cls-19{letter-spacing:-0.02em;}.cls-20{letter-spacing:-0.07em;}.cls-21{letter-spacing:0em;}.cls-22{font-size:40px;}.cls-23,.cls-27,.cls-37{font-size:53.74px;}.cls-24{font-size:29.91px;}.cls-25,.cls-30{font-size:35px;}.cls-26{letter-spacing:-0.06em;}.cls-28{font-size:34px;letter-spacing:-0.04em;}.cls-29{font-size:37px;letter-spacing:-0.06em;}.cls-30{letter-spacing:-0.03em;}.cls-31{letter-spacing:-0.01em;}.cls-32,.cls-34{font-size:50.74px;}.cls-33{font-size:28.24px;}.cls-35{letter-spacing:-0.04em;}.cls-36{font-size:42px;letter-spacing:-0.04em;}.cls-37{letter-spacing:-0.01em;}.cls-38{font-size:43px;}.cls-39{fill:#cb1417;}.cls-40{fill:#ffec00;}.cls-41{fill:#008d36;}.cls-42{font-size:36px;font-family:MyriadPro-Regular, Myriad Pro;opacity:0;}.cls-43{letter-spacing:0em;}.cls-44{letter-spacing:-0.01em;}.cls-45{letter-spacing:-0.02em;}.cls-46{letter-spacing:0em;}</style></defs><title>mlr3verse</title><rect class="cls-1" x="2354.7" y="1546.69" width="93.41" height="77.22" rx="12"/><rect class="cls-2" x="2354.7" y="1642.16" width="93.41" height="77.22" rx="12"/><rect class="cls-3" x="2354.02" y="1737.63" width="93.41" height="77.22" rx="12"/><rect class="cls-4" x="2354.02" y="1833.68" width="93.41" height="77.22" rx="12"/><rect class="cls-5" x="1628.77" y="1783.9" width="457.85" height="143.42" rx="35.44"/><rect class="cls-2" x="1628.77" y="1576.74" width="457.85" height="143.42" rx="35.44"/><rect class="cls-1" x="1628.77" y="1369.59" width="457.85" height="143.42" rx="35.44"/><rect class="cls-2" x="2515.94" y="1336.12" width="457.85" height="143.42" rx="35.44"/><rect class="cls-2" x="2514.16" y="1158.83" width="457.85" height="143.42" rx="35.44"/><rect class="cls-5" x="2514.16" y="974.76" width="457.85" height="143.42" rx="35.44"/><rect class="cls-1" x="2514.16" y="557.19" width="457.85" height="174.46" rx="35.44"/><rect class="cls-2" x="1818.3" y="179.13" width="457.85" height="143.42" rx="35.44"/><rect class="cls-2" x="4" y="1572.94" width="457.85" height="174.46" rx="35.44"/><rect class="cls-2" x="4" y="1146.45" width="457.85" height="174.46" rx="35.44"/><rect class="cls-6" x="853.91" y="1576.74" width="457.85" height="174.46" rx="35.44"/><g id="m" class="cls-7"><text class="cls-8" transform="translate(1389.96 836.94)">m</text></g><g id="l" class="cls-7"><text class="cls-8" transform="translate(1455.35 836.94)">l</text></g><g id="r"><text class="cls-8" transform="translate(1475.41 836.94)">r</text></g><g id="r-2" data-name="r"><text class="cls-9" transform="translate(1505.61 793.14)">3</text></g><g id="Group-2"><rect id="Rectangle" class="cls-10" x="1383.32" y="785.09" width="8.3" height="8.3"/><rect id="Rectangle-2" data-name="Rectangle" class="cls-10" x="1372.95" y="785.09" width="8.3" height="8.3"/><rect id="Rectangle-3" data-name="Rectangle" class="cls-10" x="1362.58" y="785.09" width="8.3" height="8.3"/><rect id="Rectangle-4" data-name="Rectangle" class="cls-10" x="1383.32" y="774.72" width="8.3" height="8.3"/><rect id="Rectangle-5" data-name="Rectangle" class="cls-10" x="1372.95" y="774.72" width="8.3" height="8.3"/><rect id="Rectangle-6" data-name="Rectangle" class="cls-10" x="1362.58" y="774.72" width="8.3" height="8.3"/><rect id="Rectangle-7" data-name="Rectangle" class="cls-10" x="1358.43" y="760.2" width="8.3" height="8.3" transform="translate(-141.38 1187.36) rotate(-45)"/><rect id="Rectangle-8" data-name="Rectangle" class="cls-10" x="1383.32" y="764.35" width="8.3" height="8.3"/><rect id="Rectangle-9" data-name="Rectangle" class="cls-10" x="1372.95" y="764.35" width="8.3" height="8.3"/></g><g id="m-2" data-name="m" class="cls-7"><text class="cls-11" transform="translate(35.53 1211.38)">m</text></g><g id="l-2" data-name="l" class="cls-7"><text class="cls-11" transform="translate(72.98 1211.38)">l</text></g><g id="r-3" data-name="r"><text class="cls-11" transform="translate(84.47 1211.38)">r</text></g><g id="r-4" data-name="r"><text class="cls-12" transform="translate(101.77 1186.29)">3</text></g><g id="Group-2-2" data-name="Group-2"><rect id="Rectangle-10" data-name="Rectangle" class="cls-10" x="31.73" y="1181.68" width="4.75" height="4.75"/><rect id="Rectangle-11" data-name="Rectangle" class="cls-10" x="25.79" y="1181.68" width="4.75" height="4.75"/><rect id="Rectangle-12" data-name="Rectangle" class="cls-10" x="19.85" y="1181.68" width="4.75" height="4.75"/><rect id="Rectangle-13" data-name="Rectangle" class="cls-10" x="31.73" y="1175.74" width="4.75" height="4.75"/><rect id="Rectangle-14" data-name="Rectangle" class="cls-10" x="25.79" y="1175.74" width="4.75" height="4.75"/><rect id="Rectangle-15" data-name="Rectangle" class="cls-10" x="19.85" y="1175.74" width="4.75" height="4.75"/><rect id="Rectangle-16" data-name="Rectangle" class="cls-10" x="17.48" y="1167.43" width="4.75" height="4.75" transform="translate(-821.36 356.66) rotate(-45)"/><rect id="Rectangle-17" data-name="Rectangle" class="cls-10" x="31.73" y="1169.8" width="4.75" height="4.75"/><rect id="Rectangle-18" data-name="Rectangle" class="cls-10" x="25.79" y="1169.8" width="4.75" height="4.75"/></g><g id="Artboard-Copy"><g id="Group"><g id="m-3" data-name="m" class="cls-7"><text class="cls-13" transform="translate(1031.49 173.05)">m</text></g><g id="l-3" data-name="l" class="cls-7"><text class="cls-13" transform="translate(1140.07 173.05)">l</text></g><g id="r-5" data-name="r"><text class="cls-13" transform="translate(1173.39 173.05)">r</text></g><g id="r-6" data-name="r"><text class="cls-14" transform="translate(1223.54 100.32)">3</text></g></g><g id="Group-2-3" data-name="Group-2"><rect id="Rectangle-19" data-name="Rectangle" class="cls-10" x="1020.47" y="86.95" width="13.78" height="13.78"/><rect id="Rectangle-20" data-name="Rectangle" class="cls-10" x="1003.25" y="86.95" width="13.78" height="13.78"/><rect id="Rectangle-21" data-name="Rectangle" class="cls-10" x="986.03" y="86.95" width="13.78" height="13.78"/><rect id="Rectangle-22" data-name="Rectangle" class="cls-10" x="1020.47" y="69.73" width="13.78" height="13.78"/><rect id="Rectangle-23" data-name="Rectangle" class="cls-10" x="1003.25" y="69.73" width="13.78" height="13.78"/><rect id="Rectangle-24" data-name="Rectangle" class="cls-10" x="986.03" y="69.73" width="13.78" height="13.78"/><rect id="Rectangle-25" data-name="Rectangle" class="cls-10" x="979.15" y="45.62" width="13.78" height="13.78" transform="translate(251.67 712.61) rotate(-45)"/><rect id="Rectangle-26" data-name="Rectangle" class="cls-10" x="1020.47" y="52.51" width="13.78" height="13.78"/><rect id="Rectangle-27" data-name="Rectangle" class="cls-10" x="1003.25" y="52.51" width="13.78" height="13.78"/></g></g><g id="r-7" data-name="r"><text class="cls-13" transform="translate(1263.79 173.05)">verse</text></g><rect class="cls-15" x="927.4" y="4" width="689.91" height="232.39" rx="35.44"/><rect class="cls-15" x="1224.82" y="734.75" width="457.85" height="244.9" rx="35.44"/><text class="cls-16" transform="translate(1239.58 895.42)">tasks, learners, train-test-eval,<tspan x="57.53" y="36" xml:space="preserve"> resample, benchmark</tspan></text><rect class="cls-17" x="1272.35" y="426.89" width="366.34" height="128.69" rx="40.16"/><text class="cls-18" transform="translate(1318.45 503.87)"><tspan class="cls-19">V</tspan><tspan x="31.15" y="0">isualization</tspan></text><rect class="cls-17" x="726.41" y="426.89" width="366.34" height="128.69" rx="40.16"/><text/><text class="cls-18" transform="translate(756.2 507.32)">Data Formats</text><rect class="cls-17" x="606.73" y="792.86" width="366.34" height="128.69" rx="40.16"/><text/><text class="cls-18" transform="translate(703.22 873.29)">Utilities</text><rect class="cls-17" x="726.41" y="1158.83" width="366.34" height="128.69" rx="40.16"/><text/><text class="cls-18" transform="translate(802.42 1239.26)">M<tspan class="cls-19" x="39.98" y="0">L</tspan><tspan x="68.44" y="0"> </tspan><tspan class="cls-20" x="81.77" y="0">T</tspan><tspan class="cls-21" x="107.53" y="0">asks</tspan></text><rect class="cls-17" x="1818.3" y="426.89" width="366.34" height="128.69" rx="40.16"/><text/><text class="cls-18" transform="translate(1855.21 507.32)">M<tspan class="cls-19" x="39.98" y="0">L</tspan><tspan x="68.44" y="0" xml:space="preserve"> Pipelines</tspan></text><rect class="cls-17" x="1966.71" y="792.86" width="366.34" height="128.69" rx="40.16"/><text/><text class="cls-18" transform="translate(2048.49 873.29)">Learners</text><rect class="cls-17" x="1818.3" y="1158.83" width="366.34" height="128.69" rx="40.16"/><text/><text class="cls-22" transform="translate(1834.75 1239.26)">Feature Selection</text><rect class="cls-17" x="1272.35" y="1158.83" width="366.34" height="128.69" rx="40.16"/><text/><text class="cls-18" transform="translate(1377.34 1239.26)"><tspan class="cls-20">T</tspan><tspan x="25.76" y="0">uning</tspan></text><g id="m-4" data-name="m" class="cls-7"><text class="cls-23" transform="translate(2566.07 633.15)">m</text></g><g id="l-4" data-name="l" class="cls-7"><text class="cls-23" transform="translate(2614.47 633.15)">l</text></g><g id="r-8" data-name="r"><text class="cls-23" transform="translate(2629.33 633.15)">r</text></g><g id="r-9" data-name="r"><text class="cls-24" transform="translate(2651.69 600.72)">3</text></g><rect id="Rectangle-28" data-name="Rectangle" class="cls-10" x="2561.15" y="594.76" width="6.14" height="6.14"/><rect id="Rectangle-29" data-name="Rectangle" class="cls-10" x="2553.47" y="594.76" width="6.14" height="6.14"/><rect id="Rectangle-30" data-name="Rectangle" class="cls-10" x="2545.8" y="594.76" width="6.14" height="6.14"/><rect id="Rectangle-31" data-name="Rectangle" class="cls-10" x="2561.15" y="587.08" width="6.14" height="6.14"/><rect id="Rectangle-32" data-name="Rectangle" class="cls-10" x="2553.47" y="587.08" width="6.14" height="6.14"/><rect id="Rectangle-33" data-name="Rectangle" class="cls-10" x="2545.8" y="587.08" width="6.14" height="6.14"/><rect id="Rectangle-34" data-name="Rectangle" class="cls-10" x="2542.73" y="576.33" width="6.14" height="6.14" transform="translate(335.95 1969.85) rotate(-45)"/><rect id="Rectangle-35" data-name="Rectangle" class="cls-10" x="2561.15" y="579.4" width="6.14" height="6.14"/><rect id="Rectangle-36" data-name="Rectangle" class="cls-10" x="2553.47" y="579.4" width="6.14" height="6.14"/><text class="cls-25" transform="translate(2538.67 670.32)">Popular learners, range<tspan class="cls-26" x="390.98" y="0">r</tspan><tspan x="402.67" y="0">,</tspan><tspan x="2" y="42">xgboost, glmnet, svm, ...</tspan></text><text class="cls-27" transform="translate(2678.59 631.07)">learners</text><rect class="cls-2" x="2514.16" y="769.97" width="457.85" height="174.46" rx="35.44"/><text class="cls-28" transform="translate(2592.37 850.1)">Many more learners,<tspan x="56.44" y="40.8">organized as</tspan><tspan x="-51.42" y="81.6">Github extension packages</tspan></text><text class="cls-29" transform="translate(2523.01 818.28)">github.com/mlr3learners</text><g id="m-5" data-name="m" class="cls-7"><text class="cls-23" transform="translate(2630.57 1045.43)">m</text></g><g id="l-5" data-name="l" class="cls-7"><text class="cls-23" transform="translate(2678.98 1045.43)">l</text></g><g id="r-10" data-name="r"><text class="cls-23" transform="translate(2693.83 1045.43)">r</text></g><g id="r-11" data-name="r"><text class="cls-24" transform="translate(2716.19 1013.01)">3</text></g><g id="Group-2-4" data-name="Group-2"><rect id="Rectangle-37" data-name="Rectangle" class="cls-10" x="2625.65" y="1007.04" width="6.14" height="6.14"/><rect id="Rectangle-38" data-name="Rectangle" class="cls-10" x="2617.98" y="1007.04" width="6.14" height="6.14"/><rect id="Rectangle-39" data-name="Rectangle" class="cls-10" x="2610.3" y="1007.04" width="6.14" height="6.14"/><rect id="Rectangle-40" data-name="Rectangle" class="cls-10" x="2625.65" y="999.37" width="6.14" height="6.14"/><rect id="Rectangle-41" data-name="Rectangle" class="cls-10" x="2617.98" y="999.37" width="6.14" height="6.14"/><rect id="Rectangle-42" data-name="Rectangle" class="cls-10" x="2610.3" y="999.37" width="6.14" height="6.14"/><rect id="Rectangle-43" data-name="Rectangle" class="cls-10" x="2607.23" y="988.62" width="6.14" height="6.14" transform="translate(63.31 2136.22) rotate(-45)"/><rect id="Rectangle-44" data-name="Rectangle" class="cls-10" x="2625.65" y="991.69" width="6.14" height="6.14"/><rect id="Rectangle-45" data-name="Rectangle" class="cls-10" x="2617.98" y="991.69" width="6.14" height="6.14"/></g><text class="cls-25" transform="translate(2530.13 1087.37)">Connecting Keras to mlr3</text><text class="cls-27" transform="translate(2741.35 1045.43)">keras</text><g id="m-6" data-name="m" class="cls-7"><text class="cls-23" transform="translate(2622.24 1229.5)">m</text></g><g id="l-6" data-name="l" class="cls-7"><text class="cls-23" transform="translate(2670.65 1229.5)">l</text></g><g id="r-12" data-name="r"><text class="cls-23" transform="translate(2685.5 1229.5)">r</text></g><g id="r-13" data-name="r"><text class="cls-24" transform="translate(2707.86 1197.08)">3</text></g><g id="Group-2-5" data-name="Group-2"><rect id="Rectangle-46" data-name="Rectangle" class="cls-10" x="2617.32" y="1191.11" width="6.14" height="6.14"/><rect id="Rectangle-47" data-name="Rectangle" class="cls-10" x="2609.64" y="1191.11" width="6.14" height="6.14"/><rect id="Rectangle-48" data-name="Rectangle" class="cls-10" x="2601.97" y="1191.11" width="6.14" height="6.14"/><rect id="Rectangle-49" data-name="Rectangle" class="cls-10" x="2617.32" y="1183.44" width="6.14" height="6.14"/><rect id="Rectangle-50" data-name="Rectangle" class="cls-10" x="2609.64" y="1183.44" width="6.14" height="6.14"/><rect id="Rectangle-51" data-name="Rectangle" class="cls-10" x="2601.97" y="1183.44" width="6.14" height="6.14"/><rect id="Rectangle-52" data-name="Rectangle" class="cls-10" x="2598.9" y="1172.69" width="6.14" height="6.14" transform="translate(-69.29 2184.24) rotate(-45)"/><rect id="Rectangle-53" data-name="Rectangle" class="cls-10" x="2617.32" y="1175.76" width="6.14" height="6.14"/><rect id="Rectangle-54" data-name="Rectangle" class="cls-10" x="2609.64" y="1175.76" width="6.14" height="6.14"/></g><text class="cls-25" transform="translate(2607.76 1273.96)">Feature Filtering</text><text class="cls-27" transform="translate(2730.35 1229.5)">filters</text><g id="m-7" data-name="m" class="cls-7"><text class="cls-23" transform="translate(2622.46 1406.8)">m</text></g><g id="l-7" data-name="l" class="cls-7"><text class="cls-23" transform="translate(2670.87 1406.8)">l</text></g><g id="r-14" data-name="r"><text class="cls-23" transform="translate(2685.72 1406.8)">r</text></g><g id="r-15" data-name="r"><text class="cls-24" transform="translate(2708.08 1374.37)">3</text></g><g id="Group-2-6" data-name="Group-2"><rect id="Rectangle-55" data-name="Rectangle" class="cls-10" x="2617.54" y="1368.41" width="6.14" height="6.14"/><rect id="Rectangle-56" data-name="Rectangle" class="cls-10" x="2609.87" y="1368.41" width="6.14" height="6.14"/><rect id="Rectangle-57" data-name="Rectangle" class="cls-10" x="2602.19" y="1368.41" width="6.14" height="6.14"/><rect id="Rectangle-58" data-name="Rectangle" class="cls-10" x="2617.54" y="1360.73" width="6.14" height="6.14"/><rect id="Rectangle-59" data-name="Rectangle" class="cls-10" x="2609.87" y="1360.73" width="6.14" height="6.14"/><rect id="Rectangle-60" data-name="Rectangle" class="cls-10" x="2602.19" y="1360.73" width="6.14" height="6.14"/><rect id="Rectangle-61" data-name="Rectangle" class="cls-10" x="2599.12" y="1349.98" width="6.14" height="6.14" transform="translate(-194.59 2236.33) rotate(-45)"/><rect id="Rectangle-62" data-name="Rectangle" class="cls-10" x="2617.54" y="1353.05" width="6.14" height="6.14"/><rect id="Rectangle-63" data-name="Rectangle" class="cls-10" x="2609.87" y="1353.05" width="6.14" height="6.14"/></g><text class="cls-30" transform="translate(2529.02 1449.25)">W<tspan class="cls-31" x="32.09" y="0">rapper Feature Selection</tspan></text><text class="cls-27" transform="translate(2726.13 1406.8)">fswrap</text><path class="cls-15" d="M2334.83,857.2h178.44" transform="translate(0)"/><path class="cls-15" d="M2334.83,857.2c0,105.46,81,190.8,181.11,190.8" transform="translate(0)"/><path class="cls-15" d="M2334.83,857.2c0-121.62,80.21-220,179.33-220" transform="translate(0)"/><path class="cls-15" d="M2184.64,1223.17c0,102.07,148.18,184.66,331.3,184.66" transform="translate(0)"/><path class="cls-15" d="M2184.64,1223.46c0-.73,147-1.32,328.63-1.32" transform="translate(0)"/><line class="cls-15" x1="1455.52" y1="979.65" x2="1455.52" y2="1158.83"/><line class="cls-15" x1="1224.82" y1="854.24" x2="973.07" y2="854.24"/><line class="cls-15" x1="1455.52" y1="733.73" x2="1453.75" y2="559.27"/><line class="cls-15" x1="1682.67" y1="857.2" x2="1966.71" y2="857.2"/><path class="cls-15" d="M2001.47,555.58c0,166.72-142.59,301.62-318.8,301.62" transform="translate(0)"/><path class="cls-15" d="M2001.47,1151.46c0-162.64-142.59-294.26-318.8-294.26" transform="translate(0)"/><path class="cls-15" d="M909.58,555.58c0,165.08,141,298.66,315.24,298.66" transform="translate(0)"/><path class="cls-15" d="M909.58,1158.83c0-168.36,141-304.59,315.24-304.59" transform="translate(0)"/><g id="m-8" data-name="m" class="cls-7"><text class="cls-23" transform="translate(1737.62 1440.26)">m</text></g><g id="l-8" data-name="l" class="cls-7"><text class="cls-23" transform="translate(1786.03 1440.26)">l</text></g><g id="r-16" data-name="r"><text class="cls-23" transform="translate(1800.88 1440.26)">r</text></g><g id="r-17" data-name="r"><text class="cls-24" transform="translate(1823.25 1407.83)">3</text></g><g id="Group-2-7" data-name="Group-2"><rect id="Rectangle-64" data-name="Rectangle" class="cls-10" x="1732.71" y="1401.87" width="6.14" height="6.14"/><rect id="Rectangle-65" data-name="Rectangle" class="cls-10" x="1725.03" y="1401.87" width="6.14" height="6.14"/><rect id="Rectangle-66" data-name="Rectangle" class="cls-10" x="1717.35" y="1401.87" width="6.14" height="6.14"/><rect id="Rectangle-67" data-name="Rectangle" class="cls-10" x="1732.71" y="1394.19" width="6.14" height="6.14"/><rect id="Rectangle-68" data-name="Rectangle" class="cls-10" x="1725.03" y="1394.19" width="6.14" height="6.14"/><rect id="Rectangle-69" data-name="Rectangle" class="cls-10" x="1717.35" y="1394.19" width="6.14" height="6.14"/><rect id="Rectangle-70" data-name="Rectangle" class="cls-10" x="1714.28" y="1383.45" width="6.14" height="6.14" transform="translate(-477.41 1620.45) rotate(-45)"/><rect id="Rectangle-71" data-name="Rectangle" class="cls-10" x="1732.71" y="1386.52" width="6.14" height="6.14"/><rect id="Rectangle-72" data-name="Rectangle" class="cls-10" x="1725.03" y="1386.52" width="6.14" height="6.14"/></g><text class="cls-25" transform="translate(1663.37 1482.71)">Hyperparameter <tspan class="cls-20" x="278.19" y="0">T</tspan><tspan x="296.97" y="0">uning</tspan></text><text class="cls-27" transform="translate(1843.96 1440.26)">tuning</text><g id="m-9" data-name="m" class="cls-7"><text class="cls-32" transform="translate(1662.59 1647.36)">m</text></g><g id="l-9" data-name="l" class="cls-7"><text class="cls-32" transform="translate(1708.29 1647.36)">l</text></g><g id="r-18" data-name="r"><text class="cls-32" transform="translate(1722.31 1647.36)">r</text></g><g id="r-19" data-name="r"><text class="cls-33" transform="translate(1743.42 1616.74)">3</text></g><g id="Group-2-8" data-name="Group-2"><rect id="Rectangle-73" data-name="Rectangle" class="cls-10" x="1657.95" y="1611.12" width="5.8" height="5.8"/><rect id="Rectangle-74" data-name="Rectangle" class="cls-10" x="1650.7" y="1611.12" width="5.8" height="5.8"/><rect id="Rectangle-75" data-name="Rectangle" class="cls-10" x="1643.45" y="1611.12" width="5.8" height="5.8"/><rect id="Rectangle-76" data-name="Rectangle" class="cls-10" x="1657.95" y="1603.87" width="5.8" height="5.8"/><rect id="Rectangle-77" data-name="Rectangle" class="cls-10" x="1650.7" y="1603.87" width="5.8" height="5.8"/><rect id="Rectangle-78" data-name="Rectangle" class="cls-10" x="1643.45" y="1603.87" width="5.8" height="5.8"/><rect id="Rectangle-79" data-name="Rectangle" class="cls-10" x="1640.55" y="1593.72" width="5.8" height="5.8" transform="translate(-647.62 1629.74) rotate(-45)"/><rect id="Rectangle-80" data-name="Rectangle" class="cls-10" x="1657.95" y="1596.62" width="5.8" height="5.8"/><rect id="Rectangle-81" data-name="Rectangle" class="cls-10" x="1650.7" y="1596.62" width="5.8" height="5.8"/></g><text class="cls-25" transform="translate(1663.37 1689.87)">Hyperparameter <tspan class="cls-20" x="278.19" y="0">T</tspan><tspan x="296.97" y="0">uning</tspan></text><text class="cls-34" transform="translate(1762.98 1647.36)">hyperband</text><text class="cls-25" transform="translate(1671.79 1897.03)">Bayesian Optimization</text><text class="cls-27" transform="translate(1855.96 1854.57)">mbo</text><path class="cls-15" d="M1453.75,1287.52c0,85,78.28,153.78,175,153.78" transform="translate(0)"/><path class="cls-15" d="M1453.75,1287.52c0,199.5,78.28,360.93,175,360.93" transform="translate(0)"/><path class="cls-15" d="M1453.75,1287.52c0,314,78.28,568.09,175,568.09" transform="translate(0)"/><rect class="cls-1" x="852.13" y="1782.86" width="457.85" height="143.42" rx="35.44"/><text class="cls-25" transform="translate(955.4 1895.99)">Parameter Sets</text><text class="cls-27" transform="translate(968.31 1853.54)">paradox</text><path class="cls-15" d="M1453.75,1287.52c0,314.59-64.3,569.16-143.77,569.16" transform="translate(0)"/><text class="cls-25" transform="translate(968.21 1690.83)"><tspan class="cls-19">T</tspan><tspan x="20.75" y="0">ime-Series &amp;</tspan><tspan x="-14.86" y="42">Functional Data</tspan></text><text class="cls-27" transform="translate(1081.09 1647.38)">time</text><path class="cls-15" d="M909.58,1287.52c0,134.42,159.56,193.83,171.51,289.22" transform="translate(0)"/><rect class="cls-5" x="4" y="1359.7" width="457.85" height="174.46" rx="35.44"/><text class="cls-25" transform="translate(33.42 1477.41)">Probabilistic Learning &amp;<tspan x="56.99" y="42">Survival</tspan><tspan class="cls-35" x="193.18" y="42"> </tspan><tspan x="201.61" y="42">Analysis</tspan></text><text class="cls-27" transform="translate(183.42 1433.58)">proba</text><text class="cls-25" transform="translate(86.86 1258.5)">Spatial learners &amp;<tspan x="54.48" y="42">resampling</tspan></text><text class="cls-36" transform="translate(114.76 1211.38)">spatiotemporal</text><rect class="cls-5" x="4" y="934.87" width="457.85" height="174.46" rx="35.44"/><text class="cls-25" transform="translate(21.06 1048)"><tspan class="cls-19">T</tspan><tspan x="20.75" y="0">ime-series forecasting &amp;</tspan><tspan x="120.29" y="42">resampling</tspan></text><text class="cls-27" transform="translate(165.42 1008.75)">forecast</text><rect class="cls-6" x="4" y="1784.97" width="457.85" height="143.42" rx="35.44"/><text class="cls-25" transform="translate(148.17 1898.1)">Clustering</text><text class="cls-27" transform="translate(201.19 1855.65)">cluster</text><text class="cls-25" transform="translate(120.44 1686.07)">Learning with<tspan x="-14.29" y="42">Ordinal </tspan><tspan class="cls-20" x="117.95" y="42">T</tspan><tspan x="136.74" y="42">argets</tspan></text><text class="cls-27" transform="translate(200.67 1643.62)">ordinal</text><rect class="cls-1" x="4" y="673.11" width="457.85" height="143.42" rx="35.44"/><text class="cls-25" transform="translate(42.11 786.24)">Performance Measures</text><text class="cls-37" transform="translate(147.19 743.78)">measures</text><rect class="cls-1" x="4" y="492.64" width="457.85" height="143.42" rx="35.44"/><text class="cls-25" transform="translate(40.21 605.77)">Devel Helper Functions</text><text class="cls-27" transform="translate(212.19 563.32)">misc</text><path class="cls-15" d="M726.41,1226.64c0-104.12-118.33-188.37-264.56-188.37" transform="translate(0)"/><path class="cls-15" d="M726.41,1226.64c0,2.15-118.33,3.9-264.56,3.9" transform="translate(0)"/><path class="cls-15" d="M726.41,1226.64c0,120.84-117.78,218.63-263.33,218.63" transform="translate(0)"/><path class="cls-15" d="M909.58,1287.52c0,203.44-200.26,368.07-447.73,368.07" transform="translate(0)"/><path class="cls-15" d="M909.58,1287.52c0,312.86-200.48,566-448.24,566" transform="translate(0)"/><rect class="cls-1" x="332.05" y="180.17" width="457.85" height="143.42" rx="35.44"/><text class="cls-25" transform="translate(373.08 293.3)">DBs as Data Backends</text><text class="cls-27" transform="translate(564.23 250.84)">db</text><g id="Artboard-Copy-2" data-name="Artboard-Copy"><g id="Group-2-9" data-name="Group"><g id="m-10" data-name="m" class="cls-7"><text class="cls-23" transform="translate(1962.15 249.81)">m</text></g><g id="l-10" data-name="l" class="cls-7"><text class="cls-23" transform="translate(2010.56 249.81)">l</text></g><g id="r-20" data-name="r"><text class="cls-23" transform="translate(2025.42 249.81)">r</text></g><text class="cls-24" transform="translate(2047.78 217.38)">3</text></g><g id="Group-2-10" data-name="Group-2"><rect id="Rectangle-82" data-name="Rectangle" class="cls-10" x="1957.24" y="211.42" width="6.14" height="6.14"/><rect id="Rectangle-83" data-name="Rectangle" class="cls-10" x="1949.56" y="211.42" width="6.14" height="6.14"/><rect id="Rectangle-84" data-name="Rectangle" class="cls-10" x="1941.88" y="211.42" width="6.14" height="6.14"/><rect id="Rectangle-85" data-name="Rectangle" class="cls-10" x="1957.24" y="203.74" width="6.14" height="6.14"/><rect id="Rectangle-86" data-name="Rectangle" class="cls-10" x="1949.56" y="203.74" width="6.14" height="6.14"/><rect id="Rectangle-87" data-name="Rectangle" class="cls-10" x="1941.88" y="203.74" width="6.14" height="6.14"/><rect id="Rectangle-88" data-name="Rectangle" class="cls-10" x="1938.81" y="192.99" width="6.14" height="6.14" transform="translate(430.13 1430.54) rotate(-45)"/><rect id="Rectangle-89" data-name="Rectangle" class="cls-10" x="1957.24" y="196.06" width="6.14" height="6.14"/><rect id="Rectangle-90" data-name="Rectangle" class="cls-10" x="1949.56" y="196.06" width="6.14" height="6.14"/></g></g><text class="cls-25" transform="translate(1942.36 292.26)"><tspan class="cls-19">V</tspan><tspan x="22.71" y="0">isualization</tspan></text><text class="cls-27" transform="translate(2068.49 249.81)">viz</text><rect class="cls-1" x="2514.16" y="180.17" width="457.85" height="174.46" rx="35.44"/><text class="cls-25" transform="translate(2613.57 293.3)">Preprocessing, <tspan x="-57.38" y="42">pipelines &amp; ensembles</tspan></text><text class="cls-27" transform="translate(2664.59 254.05)">pipelines</text><g id="m-11" data-name="m" class="cls-7"><text class="cls-23" transform="translate(2558.25 254.05)">m</text></g><g id="l-11" data-name="l" class="cls-7"><text class="cls-23" transform="translate(2606.66 254.05)">l</text></g><g id="r-21" data-name="r"><text class="cls-23" transform="translate(2621.51 254.05)">r</text></g><g id="r-22" data-name="r"><text class="cls-24" transform="translate(2643.87 221.62)">3</text></g><g id="Group-2-11" data-name="Group-2"><rect id="Rectangle-91" data-name="Rectangle" class="cls-10" x="2547.15" y="215.66" width="6.14" height="6.14"/><rect id="Rectangle-92" data-name="Rectangle" class="cls-10" x="2539.47" y="215.66" width="6.14" height="6.14"/><rect id="Rectangle-93" data-name="Rectangle" class="cls-10" x="2531.8" y="215.66" width="6.14" height="6.14"/><rect id="Rectangle-94" data-name="Rectangle" class="cls-10" x="2547.15" y="207.98" width="6.14" height="6.14"/><rect id="Rectangle-95" data-name="Rectangle" class="cls-10" x="2539.47" y="207.98" width="6.14" height="6.14"/><rect id="Rectangle-96" data-name="Rectangle" class="cls-10" x="2531.8" y="207.98" width="6.14" height="6.14"/><rect id="Rectangle-97" data-name="Rectangle" class="cls-10" x="2528.73" y="197.23" width="6.14" height="6.14" transform="translate(599.91 1848.92) rotate(-45)"/><rect id="Rectangle-98" data-name="Rectangle" class="cls-10" x="2547.15" y="200.3" width="6.14" height="6.14"/><rect id="Rectangle-99" data-name="Rectangle" class="cls-10" x="2539.47" y="200.3" width="6.14" height="6.14"/></g><path class="cls-15" d="M909.58,420.33c0-91.91-53.53-166.28-119.68-166.28" transform="translate(0)"/><path class="cls-15" d="M606.73,857.2c0-62.69-65.23-113.42-145.83-113.42" transform="translate(0)"/><path class="cls-15" d="M606.73,857.2c0-162.44-65.23-293.88-145.83-293.88" transform="translate(0)"/><path class="cls-15" d="M1453.75,426.89c0-97.88,163-177.08,364.55-177.08" transform="translate(0)"/><path class="cls-15" d="M2736.9,354.63c0,75.51-247,136.6-552.26,136.6" transform="translate(0)"/><rect class="cls-15" x="2312.09" y="1526.71" width="510.4" height="403.59" rx="35.44"/><text class="cls-38" transform="translate(2489.15 1601.43)">Stable</text><text class="cls-38" transform="translate(2489.15 1692.65)">Maturing</text><text class="cls-38" transform="translate(2489.15 1788.12)">Experimental</text><text class="cls-38" transform="translate(2489.15 1883.59)">Planned</text><circle class="cls-39" cx="2401.4" cy="1871.71" r="28.86"/><circle class="cls-40" cx="2401.4" cy="1776.24" r="28.86"/><circle class="cls-41" cx="2401.4" cy="1585.3" r="28.86"/><circle class="cls-41" cx="2401.4" cy="1680.77" r="28.86"/><circle class="cls-40" cx="2401.4" cy="1680.77" r="17.05"/><circle class="cls-41" cx="2935.93" cy="593.15" r="28.86"/><circle class="cls-41" cx="2935.93" cy="215.66" r="28.86"/><circle class="cls-41" cx="753.04" cy="216.55" r="28.86"/><circle class="cls-41" cx="424.91" cy="529.78" r="28.86"/><circle class="cls-41" cx="425.76" cy="709.52" r="28.86"/><circle class="cls-41" cx="1272.82" cy="1819.56" r="28.86"/><circle class="cls-41" cx="2049.01" cy="1406.21" r="28.86"/><circle class="cls-41" cx="2932.64" cy="1371.76" r="28.86"/><circle class="cls-40" cx="2932.64" cy="1371.76" r="17.05"/><circle class="cls-41" cx="2934.86" cy="1195.41" r="28.86"/><circle class="cls-40" cx="2934.86" cy="1195.41" r="17.05"/><circle class="cls-41" cx="2935.75" cy="806.96" r="28.86"/><circle class="cls-40" cx="2935.75" cy="806.96" r="17.05"/><circle class="cls-41" cx="2238.29" cy="217.38" r="28.86"/><circle class="cls-40" cx="2238.29" cy="217.38" r="17.05"/><circle class="cls-41" cx="425.45" cy="1184.06" r="28.86"/><circle class="cls-40" cx="425.45" cy="1184.06" r="17.05"/><circle class="cls-41" cx="425.17" cy="1610.15" r="28.86"/><circle class="cls-40" cx="425.17" cy="1610.15" r="17.05"/><circle class="cls-41" cx="2050.32" cy="1613.95" r="28.86"/><circle class="cls-40" cx="2050.32" cy="1613.95" r="17.05"/><circle class="cls-40" cx="2936.14" cy="1011.62" r="28.86"/><circle class="cls-40" cx="2050.32" cy="1820.3" r="28.86"/><circle class="cls-40" cx="423.67" cy="1397.36" r="28.86"/><circle class="cls-40" cx="425.45" cy="971.87" r="28.86"/><circle class="cls-39" cx="1274.67" cy="1613.03" r="28.86"/><circle class="cls-39" cx="424.64" cy="1822.14" r="28.86"/><g id="m-12" data-name="m" class="cls-7"><text class="cls-23" transform="translate(1753.96 1854.57)">m</text></g><g id="l-12" data-name="l" class="cls-7"><text class="cls-23" transform="translate(1802.37 1854.57)">l</text></g><g id="r-23" data-name="r"><text class="cls-23" transform="translate(1817.23 1854.57)">r</text></g><g id="r-24" data-name="r"><text class="cls-24" transform="translate(1839.59 1822.14)">3</text></g><g id="Group-2-12" data-name="Group-2"><rect id="Rectangle-100" data-name="Rectangle" class="cls-10" x="1749.05" y="1816.18" width="6.14" height="6.14"/><rect id="Rectangle-101" data-name="Rectangle" class="cls-10" x="1741.37" y="1816.18" width="6.14" height="6.14"/><rect id="Rectangle-102" data-name="Rectangle" class="cls-10" x="1733.7" y="1816.18" width="6.14" height="6.14"/><rect id="Rectangle-103" data-name="Rectangle" class="cls-10" x="1749.05" y="1808.5" width="6.14" height="6.14"/><rect id="Rectangle-104" data-name="Rectangle" class="cls-10" x="1741.37" y="1808.5" width="6.14" height="6.14"/><rect id="Rectangle-105" data-name="Rectangle" class="cls-10" x="1733.7" y="1808.5" width="6.14" height="6.14"/><rect id="Rectangle-106" data-name="Rectangle" class="cls-10" x="1730.62" y="1797.76" width="6.14" height="6.14" transform="translate(-765.59 1753.36) rotate(-45)"/><rect id="Rectangle-107" data-name="Rectangle" class="cls-10" x="1749.05" y="1800.83" width="6.14" height="6.14"/><rect id="Rectangle-108" data-name="Rectangle" class="cls-10" x="1741.37" y="1800.83" width="6.14" height="6.14"/></g><g id="m-13" data-name="m" class="cls-7"><text class="cls-23" transform="translate(975.81 1647.41)">m</text></g><g id="l-13" data-name="l" class="cls-7"><text class="cls-23" transform="translate(1024.22 1647.41)">l</text></g><g id="r-25" data-name="r"><text class="cls-23" transform="translate(1039.07 1647.41)">r</text></g><g id="r-26" data-name="r"><text class="cls-24" transform="translate(1061.43 1614.98)">3</text></g><g id="Group-2-13" data-name="Group-2"><rect id="Rectangle-109" data-name="Rectangle" class="cls-10" x="970.89" y="1609.02" width="6.14" height="6.14"/><rect id="Rectangle-110" data-name="Rectangle" class="cls-10" x="963.21" y="1609.02" width="6.14" height="6.14"/><rect id="Rectangle-111" data-name="Rectangle" class="cls-10" x="955.54" y="1609.02" width="6.14" height="6.14"/><rect id="Rectangle-112" data-name="Rectangle" class="cls-10" x="970.89" y="1601.35" width="6.14" height="6.14"/><rect id="Rectangle-113" data-name="Rectangle" class="cls-10" x="963.21" y="1601.35" width="6.14" height="6.14"/><rect id="Rectangle-114" data-name="Rectangle" class="cls-10" x="955.54" y="1601.35" width="6.14" height="6.14"/><rect id="Rectangle-115" data-name="Rectangle" class="cls-10" x="952.47" y="1590.6" width="6.14" height="6.14" transform="translate(-847.02 1142.44) rotate(-45)"/><rect id="Rectangle-116" data-name="Rectangle" class="cls-10" x="970.89" y="1593.67" width="6.14" height="6.14"/><rect id="Rectangle-117" data-name="Rectangle" class="cls-10" x="963.21" y="1593.67" width="6.14" height="6.14"/></g><g id="m-14" data-name="m" class="cls-7"><text class="cls-23" transform="translate(94.54 1856.68)">m</text></g><g id="l-14" data-name="l" class="cls-7"><text class="cls-23" transform="translate(142.95 1856.68)">l</text></g><g id="r-27" data-name="r"><text class="cls-23" transform="translate(157.81 1856.68)">r</text></g><g id="r-28" data-name="r"><text class="cls-24" transform="translate(180.17 1824.25)">3</text></g><g id="Group-2-14" data-name="Group-2"><rect id="Rectangle-118" data-name="Rectangle" class="cls-10" x="89.63" y="1818.29" width="6.14" height="6.14"/><rect id="Rectangle-119" data-name="Rectangle" class="cls-10" x="81.95" y="1818.29" width="6.14" height="6.14"/><rect id="Rectangle-120" data-name="Rectangle" class="cls-10" x="74.27" y="1818.29" width="6.14" height="6.14"/><rect id="Rectangle-121" data-name="Rectangle" class="cls-10" x="89.63" y="1810.62" width="6.14" height="6.14"/><rect id="Rectangle-122" data-name="Rectangle" class="cls-10" x="81.95" y="1810.62" width="6.14" height="6.14"/><rect id="Rectangle-123" data-name="Rectangle" class="cls-10" x="74.27" y="1810.62" width="6.14" height="6.14"/><rect id="Rectangle-124" data-name="Rectangle" class="cls-10" x="71.2" y="1799.87" width="6.14" height="6.14" transform="translate(-1253.12 580.59) rotate(-45)"/><rect id="Rectangle-125" data-name="Rectangle" class="cls-10" x="89.63" y="1802.94" width="6.14" height="6.14"/><rect id="Rectangle-126" data-name="Rectangle" class="cls-10" x="81.95" y="1802.94" width="6.14" height="6.14"/></g><g id="m-15" data-name="m" class="cls-7"><text class="cls-23" transform="translate(98.31 1643.62)">m</text></g><g id="l-15" data-name="l" class="cls-7"><text class="cls-23" transform="translate(146.72 1643.62)">l</text></g><g id="r-29" data-name="r"><text class="cls-23" transform="translate(161.57 1643.62)">r</text></g><g id="r-30" data-name="r"><text class="cls-24" transform="translate(183.93 1611.19)">3</text></g><g id="Group-2-15" data-name="Group-2"><rect id="Rectangle-127" data-name="Rectangle" class="cls-10" x="93.4" y="1605.23" width="6.14" height="6.14"/><rect id="Rectangle-128" data-name="Rectangle" class="cls-10" x="85.72" y="1605.23" width="6.14" height="6.14"/><rect id="Rectangle-129" data-name="Rectangle" class="cls-10" x="78.04" y="1605.23" width="6.14" height="6.14"/><rect id="Rectangle-130" data-name="Rectangle" class="cls-10" x="93.4" y="1597.55" width="6.14" height="6.14"/><rect id="Rectangle-131" data-name="Rectangle" class="cls-10" x="85.72" y="1597.55" width="6.14" height="6.14"/><rect id="Rectangle-132" data-name="Rectangle" class="cls-10" x="78.04" y="1597.55" width="6.14" height="6.14"/><rect id="Rectangle-133" data-name="Rectangle" class="cls-10" x="74.97" y="1586.8" width="6.14" height="6.14" transform="translate(-1101.35 520.85) rotate(-45)"/><rect id="Rectangle-134" data-name="Rectangle" class="cls-10" x="93.4" y="1589.87" width="6.14" height="6.14"/><rect id="Rectangle-135" data-name="Rectangle" class="cls-10" x="85.72" y="1589.87" width="6.14" height="6.14"/></g><g id="m-16" data-name="m" class="cls-7"><text class="cls-23" transform="translate(80.09 1433.58)">m</text></g><g id="l-16" data-name="l" class="cls-7"><text class="cls-23" transform="translate(128.5 1433.58)">l</text></g><g id="r-31" data-name="r"><text class="cls-23" transform="translate(143.35 1433.58)">r</text></g><g id="r-32" data-name="r"><text class="cls-24" transform="translate(165.71 1401.15)">3</text></g><g id="Group-2-16" data-name="Group-2"><rect id="Rectangle-136" data-name="Rectangle" class="cls-10" x="75.17" y="1395.19" width="6.14" height="6.14"/><rect id="Rectangle-137" data-name="Rectangle" class="cls-10" x="67.5" y="1395.19" width="6.14" height="6.14"/><rect id="Rectangle-138" data-name="Rectangle" class="cls-10" x="59.82" y="1395.19" width="6.14" height="6.14"/><rect id="Rectangle-139" data-name="Rectangle" class="cls-10" x="75.17" y="1387.51" width="6.14" height="6.14"/><rect id="Rectangle-140" data-name="Rectangle" class="cls-10" x="67.5" y="1387.51" width="6.14" height="6.14"/><rect id="Rectangle-141" data-name="Rectangle" class="cls-10" x="59.82" y="1387.51" width="6.14" height="6.14"/><rect id="Rectangle-142" data-name="Rectangle" class="cls-10" x="56.75" y="1376.76" width="6.14" height="6.14" transform="translate(-958.17 446.44) rotate(-45)"/><rect id="Rectangle-143" data-name="Rectangle" class="cls-10" x="75.17" y="1379.83" width="6.14" height="6.14"/><rect id="Rectangle-144" data-name="Rectangle" class="cls-10" x="67.5" y="1379.83" width="6.14" height="6.14"/></g><g id="m-17" data-name="m" class="cls-7"><text class="cls-23" transform="translate(59.09 1008.75)">m</text></g><g id="l-17" data-name="l" class="cls-7"><text class="cls-23" transform="translate(107.5 1008.75)">l</text></g><g id="r-33" data-name="r"><text class="cls-23" transform="translate(122.35 1008.75)">r</text></g><g id="r-34" data-name="r"><text class="cls-24" transform="translate(144.71 976.32)">3</text></g><g id="Group-2-17" data-name="Group-2"><rect id="Rectangle-145" data-name="Rectangle" class="cls-10" x="54.17" y="970.36" width="6.14" height="6.14"/><rect id="Rectangle-146" data-name="Rectangle" class="cls-10" x="46.5" y="970.36" width="6.14" height="6.14"/><rect id="Rectangle-147" data-name="Rectangle" class="cls-10" x="38.82" y="970.36" width="6.14" height="6.14"/><rect id="Rectangle-148" data-name="Rectangle" class="cls-10" x="54.17" y="962.68" width="6.14" height="6.14"/><rect id="Rectangle-149" data-name="Rectangle" class="cls-10" x="46.5" y="962.68" width="6.14" height="6.14"/><rect id="Rectangle-150" data-name="Rectangle" class="cls-10" x="38.82" y="962.68" width="6.14" height="6.14"/><rect id="Rectangle-151" data-name="Rectangle" class="cls-10" x="35.75" y="951.93" width="6.14" height="6.14" transform="translate(-663.92 307.16) rotate(-45)"/><rect id="Rectangle-152" data-name="Rectangle" class="cls-10" x="54.17" y="955" width="6.14" height="6.14"/><rect id="Rectangle-153" data-name="Rectangle" class="cls-10" x="46.5" y="955" width="6.14" height="6.14"/></g><g id="m-18" data-name="m" class="cls-7"><text class="cls-23" transform="translate(45.85 743.78)">m</text></g><g id="l-18" data-name="l" class="cls-7"><text class="cls-23" transform="translate(94.26 743.78)">l</text></g><g id="r-35" data-name="r"><text class="cls-23" transform="translate(109.11 743.78)">r</text></g><g id="r-36" data-name="r"><text class="cls-24" transform="translate(131.47 711.36)">3</text></g><g id="Group-2-18" data-name="Group-2"><rect id="Rectangle-154" data-name="Rectangle" class="cls-10" x="40.94" y="705.39" width="6.14" height="6.14"/><rect id="Rectangle-155" data-name="Rectangle" class="cls-10" x="33.26" y="705.39" width="6.14" height="6.14"/><rect id="Rectangle-156" data-name="Rectangle" class="cls-10" x="25.58" y="705.39" width="6.14" height="6.14"/><rect id="Rectangle-157" data-name="Rectangle" class="cls-10" x="40.94" y="697.72" width="6.14" height="6.14"/><rect id="Rectangle-158" data-name="Rectangle" class="cls-10" x="33.26" y="697.72" width="6.14" height="6.14"/><rect id="Rectangle-159" data-name="Rectangle" class="cls-10" x="25.58" y="697.72" width="6.14" height="6.14"/><rect id="Rectangle-160" data-name="Rectangle" class="cls-10" x="22.51" y="686.97" width="6.14" height="6.14" transform="translate(-480.44 220.2) rotate(-45)"/><rect id="Rectangle-161" data-name="Rectangle" class="cls-10" x="40.94" y="690.04" width="6.14" height="6.14"/><rect id="Rectangle-162" data-name="Rectangle" class="cls-10" x="33.26" y="690.04" width="6.14" height="6.14"/></g><g id="m-19" data-name="m" class="cls-7"><text class="cls-23" transform="translate(105.85 563.32)">m</text></g><g id="l-19" data-name="l" class="cls-7"><text class="cls-23" transform="translate(154.26 563.32)">l</text></g><g id="r-37" data-name="r"><text class="cls-23" transform="translate(169.11 563.32)">r</text></g><g id="r-38" data-name="r"><text class="cls-24" transform="translate(191.47 530.89)">3</text></g><g id="Group-2-19" data-name="Group-2"><rect id="Rectangle-163" data-name="Rectangle" class="cls-10" x="100.94" y="524.93" width="6.14" height="6.14"/><rect id="Rectangle-164" data-name="Rectangle" class="cls-10" x="93.26" y="524.93" width="6.14" height="6.14"/><rect id="Rectangle-165" data-name="Rectangle" class="cls-10" x="85.58" y="524.93" width="6.14" height="6.14"/><rect id="Rectangle-166" data-name="Rectangle" class="cls-10" x="100.94" y="517.25" width="6.14" height="6.14"/><rect id="Rectangle-167" data-name="Rectangle" class="cls-10" x="93.26" y="517.25" width="6.14" height="6.14"/><rect id="Rectangle-168" data-name="Rectangle" class="cls-10" x="85.58" y="517.25" width="6.14" height="6.14"/><rect id="Rectangle-169" data-name="Rectangle" class="cls-10" x="82.51" y="506.5" width="6.14" height="6.14" transform="translate(-335.26 209.77) rotate(-45)"/><rect id="Rectangle-170" data-name="Rectangle" class="cls-10" x="100.94" y="509.57" width="6.14" height="6.14"/><rect id="Rectangle-171" data-name="Rectangle" class="cls-10" x="93.26" y="509.57" width="6.14" height="6.14"/></g><g id="m-20" data-name="m" class="cls-7"><text class="cls-23" transform="translate(460.9 250.66)">m</text></g><g id="l-20" data-name="l" class="cls-7"><text class="cls-23" transform="translate(509.31 250.66)">l</text></g><g id="r-39" data-name="r"><text class="cls-23" transform="translate(524.16 250.66)">r</text></g><g id="r-40" data-name="r"><text class="cls-24" transform="translate(546.52 218.24)">3</text></g><g id="Group-2-20" data-name="Group-2"><rect id="Rectangle-172" data-name="Rectangle" class="cls-10" x="455.98" y="212.27" width="6.14" height="6.14"/><rect id="Rectangle-173" data-name="Rectangle" class="cls-10" x="448.31" y="212.27" width="6.14" height="6.14"/><rect id="Rectangle-174" data-name="Rectangle" class="cls-10" x="440.63" y="212.27" width="6.14" height="6.14"/><rect id="Rectangle-175" data-name="Rectangle" class="cls-10" x="455.98" y="204.6" width="6.14" height="6.14"/><rect id="Rectangle-176" data-name="Rectangle" class="cls-10" x="448.31" y="204.6" width="6.14" height="6.14"/><rect id="Rectangle-177" data-name="Rectangle" class="cls-10" x="440.63" y="204.6" width="6.14" height="6.14"/><rect id="Rectangle-178" data-name="Rectangle" class="cls-10" x="437.56" y="193.85" width="6.14" height="6.14" transform="translate(-10.19 369.25) rotate(-45)"/><rect id="Rectangle-179" data-name="Rectangle" class="cls-10" x="455.98" y="196.92" width="6.14" height="6.14"/><rect id="Rectangle-180" data-name="Rectangle" class="cls-10" x="448.31" y="196.92" width="6.14" height="6.14"/></g><text class="cls-42" transform="translate(1349.55 789.79)"><tspan class="cls-43">h</tspan><tspan x="19.84" y="0">ttps://</tspan><tspan class="cls-44" x="110.55" y="0">g</tspan><tspan x="130.46" y="0">it</tspan><tspan x="150.8" y="0">-</tspan><tspan x="0" y="43.2">hu</tspan><tspan class="cls-45" x="39.82" y="43.2">b</tspan><tspan class="cls-46" x="59.44" y="43.2">.</tspan><tspan class="cls-44" x="66.89" y="43.2">c</tspan><tspan x="82.8" y="43.2">om/m</tspan><tspan x="174.96" y="43.2">-</tspan></text></svg>